/* XPM */
static char *floormaker__[] = {
/* columns rows colors chars-per-pixel */
"32 32 191 2",
"   c #7D2A2A",
".  c #152A47",
"X  c #153866",
"o  c #224677",
"O  c #2B4E7E",
"+  c #7D5557",
"@  c #7D4869",
"#  c #6F5F61",
"$  c #6C4B74",
"%  c #6B4E79",
"&  c #754D73",
"*  c #785670",
"=  c #705178",
"-  c #506163",
";  c #546769",
":  c #8F1515",
">  c #8A1A1A",
",  c #941615",
"<  c #9A1614",
"1  c #931818",
"2  c #9E1919",
"3  c #A30C0B",
"4  c #AB0E0C",
"5  c #BB100E",
"6  c #A61110",
"7  c #A91616",
"8  c #A31A1A",
"9  c #A91A1B",
"0  c #B01614",
"q  c #BA1110",
"w  c #BC1A1A",
"e  c #9F2323",
"r  c #9A2926",
"t  c #95293E",
"y  c #853537",
"u  c #A32424",
"i  c #A52B2C",
"p  c #B42020",
"a  c #B62936",
"s  c #C10E0E",
"d  c #DD0404",
"f  c #DE0D0D",
"g  c #C3100E",
"h  c #C31413",
"j  c #CB1616",
"k  c #C31D1D",
"l  c #CB1D1D",
"z  c #DF1414",
"x  c #D31E1E",
"c  c #DE1B1B",
"v  c #EB0F0A",
"b  c #E11616",
"n  c #E11C1C",
"m  c #EB1E1E",
"M  c #CF1E22",
"N  c #CE2123",
"B  c #C0252E",
"V  c #D72121",
"C  c #DC2223",
"Z  c #CC3434",
"A  c #E12223",
"S  c #EC2121",
"D  c #E32F2F",
"F  c #F32525",
"G  c #E33535",
"H  c #E43B3B",
"J  c #8D304A",
"K  c #873B58",
"L  c #8F4041",
"P  c #924F53",
"I  c #92536C",
"U  c #845675",
"Y  c #906A70",
"T  c #BE696B",
"R  c #AB6772",
"E  c #E64343",
"W  c #E64B4B",
"Q  c #E75151",
"!  c #E85454",
"~  c #E85959",
"^  c #1F4B86",
"/  c #1F4D8A",
"(  c #214F8C",
")  c #21508F",
"_  c #2D568E",
"`  c #275490",
"'  c #285795",
"]  c #2E5992",
"[  c #2B5C9A",
"{  c #325C94",
"}  c #335F99",
"|  c #34609A",
" . c #39659D",
".. c #3F689C",
"X. c #1C69B3",
"o. c #2D62A7",
"O. c #3563A1",
"+. c #3967A1",
"@. c #3A69A5",
"#. c #3668AA",
"$. c #386AA9",
"%. c #2E66B0",
"&. c #2F6BB4",
"*. c #346BB2",
"=. c #386FB2",
"-. c #316FBC",
";. c #2071BC",
":. c #2F75BC",
">. c #3471B5",
",. c #3A72B6",
"<. c #3574BB",
"1. c #3C74BB",
"2. c #3C7DBD",
"3. c #525286",
"4. c #595381",
"5. c #525689",
"6. c #4C5E91",
"7. c #485F98",
"8. c #655B87",
"9. c #546C8B",
"0. c #426898",
"q. c #51669A",
"w. c #566B9F",
"e. c #626291",
"r. c #696F9E",
"t. c #4464A0",
"y. c #4368A5",
"u. c #4175B3",
"i. c #4A7CB7",
"p. c #2577C0",
"a. c #2E7DC5",
"s. c #3476C2",
"d. c #3E77C0",
"f. c #357AC4",
"g. c #3E79C5",
"h. c #367EC8",
"j. c #3F7CC9",
"k. c #407CC2",
"l. c #417DC9",
"z. c #927EA0",
"x. c #788CA6",
"c. c #778CA9",
"v. c #3881C2",
"b. c #3781CB",
"n. c #3E8ACA",
"m. c #378BD3",
"M. c #3B94DC",
"N. c #3E9BE2",
"B. c #4387C7",
"V. c #4283CD",
"C. c #4589CD",
"Z. c #4991CF",
"A. c #4487D0",
"S. c #448BD3",
"D. c #488ED3",
"F. c #4B94D6",
"G. c #4193DA",
"H. c #4C97D9",
"J. c #4599DD",
"K. c #4C9AD9",
"L. c #509EDD",
"P. c #439DE3",
"I. c #4CA2E4",
"U. c #46A5E9",
"Y. c #868185",
"T. c #92979B",
"R. c #B6868C",
"E. c #A4B2B7",
"W. c #A7B6BB",
"Q. c #CA848E",
"!. c #D1A3A8",
"~. c #95BBDD",
"^. c #A7AEC7",
"/. c #ACBBC1",
"(. c #AEBFD8",
"). c #BFD0D7",
"_. c #A7CAE8",
"`. c #CCD1DF",
"'. c #DCD9DE",
"]. c #E8CFD4",
"[. c #C5D3E4",
"{. c #DEEAF3",
"}. c #E3E6EC",
"|. c #E7EAEF",
" X c #EBEEF5",
".X c #F2EFF6",
"XX c #EEF3F6",
"oX c #ECF3FB",
"OX c #F0F5F8",
"-X c #F08F8F",
"@X c None",
/* pixels */
"@X@X@X@X@X@X@X@X@X@X@X@X@X@X@X@X@X@X@X@X@X@X@X@X@X@X@X@X@X@X@X@X",
"@X@X@X@X@X@X@X@X@X@X@X@X@X@X@X@X@X@X@X@X@X@X@X@X@X@X@X@X@X@X@X@X",
"@X@X@X@X@X@X@X@X@X@X@X@X@X@X@Xc.c.c.c.@X@X@X@X@X@X@X@X@X@X@X@X@X",
"@X@X@X@X@X@X@X@X@X@X@X. o ^ ( ` ` ( ) ) ( X @X@X@X@X@X@X@X@X@X@X",
"@X@X@X@X@X@X@X@X@X@X@X( } { } } } } { { ] ' 9.@X@X@X@X@X@X@X@X@X",
"@X@X@X@X@X@X@X@X@X@X@X' #.] _ ] ] ` ] ] #.*.@X@X@X@X@X@X@X@X@X@X",
"@X@X@X@X@X@X@X@X@X@X@X[ k.,.=.1.,.,.1.,.u.*.@X@X@X@X@X@X@X@X@X@X",
"@X@X@X@X@X@X@X@X@X@X@Xo.k.u.d.d.1.,.1.1.k.*.@X@X@X@X@X@X@X@X@X@X",
"@X@X@X@X@X@X@X@X@X@X@X%.l.k.l.=.( O.l.k.l.*.@X@X@X@X@X@X@X@X@X@X",
"@X@X@X@X@X@X@X@X@X@X@X&.l.j.l.*.@X#.l.l.l.<.@X@X@X@X@X@X@X@X@X@X",
"@X@X@X@X@X@X@X@X@X@X@X-.V.V.A.#.@X=.A.l.V.s.@X@X@X@X@X@X@X@X@X@X",
"@X@X@X@X@X@X@X@X@X@X@Xs.A.V.A.O.@X,.A.V.A.s.@X@X@X@X@X@X@X@X@X@X",
"@X@X@X@X@X@X@X@X@X@X@Xs.S.C.S.O.@X,.D.V.S.f.@X@X@X@X@X@X@X@X@X@X",
"@X@X@X@X@X@X@X@X@X@X@Xf.D.S.A. .@X@.D.C.S.f.@X@X@X@X@X@X@X@X@X@X",
"@X@X@X@X@X@X@X@X@X@X@Xh.F.D.S...@X0.S.D.F.b.@X@X@X@X@X@X@X@X@X@X",
"@X@X@X@X@X@X@Xf c -XI m.k.B.M.5.-X4.M.S.l.m.U -XW d @X@X@X@X@X@X",
"@X@X@X@X@X@X@Xn C v K M.C.V.G.3.-X$ M.C.g.M.& -Xn n @X@X@X@X@X@X",
"@X@X@X@X@X@X@Xb -X-X@ N.H.H.G.0.-X$ M.H.H.P.9.b A b @X@X@X@X@X@X",
"@X@X@X@X@X@X@Xb C -X& N.F.H.G.0.-X& M.H.F.J.w.-X-Xb @X@X@X@X@X@X",
"@X@X@X@X@X@XA -XA -X8.U.H.H.J.y.-X$ M.H.H.P.w.-XA -Xn @X@X@X@X@X",
"@X@X@X@X@X@Xz -XA -Xe.U.K.K.I.,.c % N.L.L.U.i.M -X-Xz @X@X@X@X@X",
"@X@X@X@X@XZ n -X-XC 6.v.,.2.Z.2.N $ n.B.B.Z.n.a -XC b E @X@X@X@X",
"@X@X@X@X@Xn -XA -Xt ;.<.2.:.f.<.a 3.;.,.>.&.X.J -XA -Xb @X@X@X@X",
"@X@X@X@X@XF -XV 5 R _.[.[.^.r.q.4 * z.`.[.(.~.R g V -Xm u @X@X@X",
"@X@X@X@XN -Xk 7 i }.XX XoX].Q.P 4 r R.XX X XOX'.u 7 l -Xg @X@X@X",
"@X@X@X@XF k 2 3 !.-XXXoXoX{.Y < 8 4 y ).-XoX X-XT 3 8 l S @X@X@X",
"@X@X@Xj S V w p # - /.W.T.+ , 7 8 8 3   z.E.E.; J 6 8 w -Xj @X@X",
"@X@X@Xb -X-Xn A 0 : > 1 6 5 x l l x c j 5 , > : 0 k x A -Xz @X@X",
"@X@XW n -X-XA A -X-X-X-X-X-X-X-X-X-X-X-X-X-X-X-X-X-X-X-X-Xn G @X",
"@X@Xd n c z c n C n A -XC n A c c c n c c c c c z c n c c n d @X",
"@X@XH W Q ! H D A A A A A A A G G H H H H H E W ~ W E E W ! Q @X",
"@X@X@X@X@X@X@X@X@X@X@X@X@X@X@X@X@X@X@X@X@X@X@X@X@X@X@X@X@X@X@X@X"
};
