/* XPM */
static char *spritebankeditor__[] = {
/* columns rows colors chars-per-pixel */
"32 32 256 2",
"   c #080807",
".  c #0C0C0C",
"X  c #161514",
"o  c #181716",
"O  c #1A1917",
"+  c #1D1C1A",
"@  c #211E1D",
"#  c #2A1C1F",
"$  c #22211E",
"%  c #252422",
"&  c #292624",
"*  c #2A2926",
"=  c #2D2C2A",
"-  c #322426",
";  c #372629",
":  c #3A2529",
">  c #322D2C",
",  c #3C2C2E",
"<  c #2D342E",
"1  c #32312E",
"2  c #38302F",
"3  c #3D2E30",
"4  c #2F3B32",
"5  c #353531",
"6  c #3A3633",
"7  c #343A33",
"8  c #3A3A35",
"9  c #3E3D39",
"0  c #4D1224",
"q  c #4E1829",
"w  c #431D28",
"e  c #56162B",
"r  c #5A162C",
"t  c #531A2C",
"y  c #59192D",
"u  c #571C31",
"i  c #5D1C31",
"p  c #641C33",
"a  c #6D1F39",
"s  c #681C34",
"d  c #711936",
"f  c #751A38",
"g  c #7C1C3C",
"h  c #45242C",
"j  c #49242D",
"k  c #43282E",
"l  c #462B31",
"z  c #4D2A34",
"x  c #532435",
"c  c #5A2333",
"v  c #532B35",
"b  c #5D2C3B",
"n  c #592638",
"m  c #4B3136",
"M  c #423D3A",
"N  c #453435",
"B  c #5C323D",
"V  c #52353B",
"C  c #632237",
"Z  c #642C3D",
"A  c #6F2C3F",
"S  c #642639",
"D  c #73263E",
"F  c #62323F",
"G  c #3C443B",
"H  c #3F483E",
"J  c #43423D",
"K  c #4A433F",
"L  c #563F41",
"P  c #5B3B42",
"I  c #6F2D41",
"U  c #782943",
"Y  c #643442",
"T  c #683141",
"R  c #633B46",
"E  c #6C3748",
"W  c #633F49",
"Q  c #723749",
"!  c #732E5A",
"~  c #67395F",
"^  c #422C67",
"/  c #572E61",
"(  c #6F3E77",
")  c #693B7C",
"_  c #38547F",
"`  c #454541",
"'  c #494641",
"]  c #444941",
"[  c #4A4844",
"{  c #4E4D4A",
"}  c #5C4046",
"|  c #5E4149",
" . c #504E4B",
".. c #53524E",
"X. c #5F4753",
"o. c #565552",
"O. c #595754",
"+. c #604047",
"@. c #69444D",
"#. c #73484F",
"$. c #604A56",
"%. c #7F4A57",
"&. c #7B585D",
"*. c #615867",
"=. c #7A5F69",
"-. c #765B65",
";. c #6B4178",
":. c #706469",
">. c #86082A",
",. c #84183D",
"<. c #AD0E3C",
"1. c #8F1540",
"2. c #861D40",
"3. c #8A1E43",
"4. c #971541",
"5. c #941E46",
"6. c #9C1A46",
"7. c #901F48",
"8. c #A41847",
"9. c #A41A4A",
"0. c #AB1A4C",
"q. c #A11646",
"w. c #B31A4E",
"e. c #AD1D51",
"r. c #B51250",
"t. c #B61C51",
"y. c #BB1D53",
"u. c #BB1754",
"i. c #832D49",
"p. c #8A2445",
"a. c #843247",
"s. c #8D2450",
"d. c #BC294C",
"f. c #B9334F",
"g. c #B62252",
"h. c #BD2055",
"j. c #AF3050",
"k. c #9B2A69",
"l. c #AB2363",
"z. c #B63367",
"x. c #A13C76",
"c. c #C41749",
"v. c #C31C56",
"b. c #C51F58",
"n. c #CC1E5C",
"m. c #D01458",
"M. c #D01D5D",
"N. c #DA1751",
"B. c #C02156",
"V. c #C12359",
"C. c #C92F5F",
"Z. c #D41D62",
"A. c #DC1F65",
"S. c #DD1E69",
"D. c #EE1F66",
"F. c #E31D69",
"G. c #FF1F6C",
"H. c #FF1464",
"J. c #CD2B62",
"K. c #DC2165",
"L. c #D72769",
"P. c #D53662",
"I. c #E02267",
"U. c #E4226A",
"Y. c #EC226D",
"T. c #F3226E",
"R. c #FF206A",
"E. c #E62670",
"W. c #EB2471",
"Q. c #F8257A",
"!. c #F6297B",
"~. c #F92A7E",
"^. c #FB2377",
"/. c #E43275",
"(. c #F5397C",
"). c #9C4A4D",
"_. c #82535F",
"`. c #AE4255",
"'. c #A65F52",
"]. c #97774D",
"[. c #8F685D",
"{. c #964279",
"}. c #B55D60",
"|. c #947164",
" X c #BE7D7B",
".X c #D8595C",
"XX c #C4536F",
"oX c #F14B7B",
"OX c #B79B71",
"+X c #D8806E",
"@X c #C9B372",
"#X c #533484",
"$X c #623881",
"%X c #773C8F",
"&X c #7F3C9A",
"*X c #11489F",
"=X c #2F418F",
"-X c #2C4F85",
";X c #344380",
":X c #375C8C",
">X c #38629C",
",X c #1147A5",
"<X c #0857B8",
"1X c #155DB6",
"2X c #2F58AC",
"3X c #3662A7",
"4X c #5C58A4",
"5X c #5979AB",
"6X c #5D73B0",
"7X c #065FC8",
"8X c #075EC4",
"9X c #135BC0",
"0X c #0060D3",
"qX c #347CD2",
"wX c #0067E2",
"eX c #0172EC",
"rX c #1176E6",
"tX c #0777F3",
"yX c #007DF4",
"uX c #007DFF",
"iX c #8B3D81",
"pX c #F52780",
"aX c #F72881",
"sX c #F92A81",
"dX c #81459E",
"fX c #B05E82",
"gX c #996D80",
"hX c #A86986",
"jX c #B66A88",
"kX c #DD4784",
"lX c #D45C88",
"zX c #E94C89",
"xX c #F64885",
"cX c #F2518F",
"vX c #EC5893",
"bX c #CC669E",
"nX c #C07B90",
"mX c #F66FA1",
"MX c #5E85B9",
"NX c #6E85A2",
"BX c #3D8DD9",
"VX c #0088FF",
"CX c #7DB8F6",
"ZX c #988884",
"AX c #B1948E",
"SX c #A58F97",
"DX c #9099A1",
"FX c #AA94AB",
"GX c #B8ACAC",
"HX c #AEBBBF",
"JX c #CABBA8",
"KX c #C9C7B9",
"LX c #BECFD5",
"PX c #C2CED9",
"IX c #F3FBFE",
"UX c None",
/* pixels */
"UXUXUXUXUXUXUXUXUXUXUXUXUXUXUXUXUXUXUXUXUXUXUXUXUXUXUXUXUXUXUXUX",
"UXUX8 J M 8 8 9 9 K ..O.O.o....... . . . . ...O. .{ [ ` ` ` UXUX",
"UXUX% J 9 9 M J J J J J J [ [ ] K [ J K J K J 8 8 9 9 8 6 9 + UX",
"UXUX& J M J 9 G G G H H J ] K ] ] ] ] ] H H J H J J J J J J + UX",
"UXUX& < % = 9 Y Q F T Q | | P P } | @.@.+.R B } ' J > & * 9 + UX",
"UXUX& o UX+ 8 9.M.b.U.~././.V.).`.K.aXaXsXE.b.b.T H + UXUX9 + UX",
"UXUX% % UX$ G p.b.y.K.(.oXxXj.@X+XA.sXaXsXE.V.b.Y G % UX+ 9 + UX",
"UXUX$ 9 6 5 4 p.V.g.L.xXvXzXfXKXjXL.~.!.~.Y.v.v.B 9 6 8 8 9 X UX",
"UXUX% $ UXX 7 D v.t.J.cXmXlXAXIXJXP.Q.!.~.W.y.v.F G O UXO 9 X UX",
"UXUX% $ UXUXG D b.g.J.kXbXXX|.CXNX.XQ.!.Q.W.h.v.B G X UXUX8 . UX",
"UXUX$ 8 1 > 7 A z.{.iXhXBX2X3X0XyX4XR.!.Q.Y.y.y.B 7 5 > 6 5 . UX",
"UXUX% = + + 4 Y z.x.;.FX) 7XtX/ 1XVXdXR.!.Y.y.y.B 7 $ + = > UXUX",
"UXUX% % UXUX4 b y.w.0.L.^.l.) %X^ eXuX&XH.F.y.t.V 7 . UX+ = UXUX",
"UXUX% 5 X + 7 l d s D ,.p.s.! ;.~ -XqX6XjXi.f g M 8 + UX< * UXUX",
"UXUX$ 9 8 8 8 , i p y i y i E %._.:.GX XHXDXi t 6 8 8 9 8 * UXUX",
"UXUX$ =   . 1 2 y i i p p s s C p u x x t b s i 9 5 .   * * UXUX",
"UXUX+ = UXUX5 6 1 1 3 3 3 l k , l k h j j h h k G 2 UXUX* * UXUX",
"UXUX+ 8 * % 5 6 6 6 6 6 6 6 6 6 7 8 7 6 7 5 5 5 6 1 & * 2 & UXUX",
"UXUXo 8 = * 5 6 6 7 7 7 4 4 7 7 7 7 4 7 G 4 7 7 6 1 * = 5 * UXUX",
"UXUX+ 5 UXUX< 6 3 6 m Y T I T b Z Q U i.a.A S n G 1 UXUX* * UXUX",
"UXUX@ = UXUX< 3 6.6.y.Y.F.T.v.4.q.n.T.T.T.M.w.5.7 2 . UX* * UXUX",
"UXUX$ 8 6 6 5 l 0.0.b.U.F.W.6.].'.u.U.S.Y.V.9.5.6 5 5 8 5 % UXUX",
"UXUX$ = O O < z 0.9.u.U.U.F.7.OX}.r.U.U.Y.M.0.9.N 5 + X = * UXUX",
"UXUX$ & UXUX< x 9.6.t.U.W.Z.|.PXSXg.U.U.F.M.9.8.m 7 . UX+ * UXUX",
"UXUX$ = X + < n 0.9.0.K.U.v.[.PXZXf.F.I.U.Z.0.8.z 4 + X * = UXUX",
"UXUX+ 8 = = < C 8.8.t.K.U.h.*.rX>Xd.S.K.K.Z.9.8.v 1 = = 1 > UXUX",
"UXUX$ + UXUX4 C 8.6.0.A.U.c.;XwX9Xg.S.K.U.M.9.8.v 4 X UXo 5 . UX",
"UXUX+ + UXUX< a 0.9.0.S.U.N.=X<X8Xk.D.U.U.K.8.0.v 7 X UXUX5 . UX",
"UXUX+ 5 1 > < i f s d 3.4.>.,X*X<X#X<.9.5.,.d ,.z 7 > 1 1 5 X UX",
"UXUX+ %   + < w u t e 0 X.ZX6X_ :X5X#.x q t t e , 7 +   + 5 X UX",
"UXUX@ X UXUX1 q r r r e X.-.&.P | &.:.Y e r r e : 6 O UXUX6 o UX",
"UXUX+ * + & 1 : : ; ; ; # $ # - & # # - > ; ; > > 5 * + % 5 X UX"
};
