/* XPM */
static char *translationeditor__[] = {
/* columns rows colors chars-per-pixel */
"32 32 226 2",
"   c #010001",
".  c #0D0101",
"X  c #04040F",
"o  c gray3",
"O  c #120101",
"+  c #160C0C",
"@  c #061605",
"#  c #051E00",
"$  c #140317",
"%  c #290B0B",
"&  c #390808",
"*  c #003500",
"=  c #0A3103",
"-  c #0C3D03",
";  c #040520",
":  c #01032C",
">  c #140426",
",  c #030532",
"<  c #0D0530",
"1  c #070A36",
"2  c #02033B",
"3  c #232424",
"4  c #2A3229",
"5  c #2E392C",
"6  c #30302F",
"7  c #4D0404",
"8  c #45090B",
"9  c #5A0607",
"0  c #560B0D",
"q  c #4C1819",
"w  c #551414",
"e  c #501818",
"r  c #640000",
"t  c #6B0000",
"y  c #700101",
"u  c #7D0101",
"i  c #472221",
"p  c #492223",
"a  c #502125",
"s  c #552629",
"d  c #453A3C",
"f  c #563237",
"g  c #642323",
"h  c #094300",
"j  c #144C09",
"k  c #135E05",
"l  c #006500",
"z  c #146405",
"x  c #136B02",
"c  c #1B610D",
"v  c #0E7800",
"b  c #1F6B10",
"n  c #28631C",
"m  c #2D6C21",
"M  c #3E6C35",
"N  c #40403F",
"B  c #406F36",
"V  c #060845",
"C  c #01064A",
"Z  c #040848",
"A  c #010256",
"S  c #04075E",
"D  c #0D1652",
"F  c #3E3940",
"G  c #020760",
"H  c #02086C",
"J  c #181B67",
"K  c #00007D",
"L  c #02087D",
"P  c #4E4D4D",
"I  c #644E4F",
"U  c #645B5E",
"Y  c #6C5A5C",
"T  c #55744F",
"R  c #5C7458",
"E  c #6D6262",
"W  c #696768",
"Q  c #6D6C6D",
"!  c #726363",
"~  c #70716F",
"^  c #6F7171",
"/  c #747474",
"(  c #7C7779",
")  c #7D7B7B",
"_  c #850202",
"`  c #8E0201",
"'  c #940202",
"]  c #9B0201",
"[  c #A30201",
"{  c #AC0202",
"}  c #B40303",
"|  c #BD0304",
" . c #C50303",
".. c #CD0203",
"X. c #D30202",
"o. c #DC0404",
"O. c #DC0A0A",
"+. c #E50303",
"@. c #EB0303",
"#. c #E10808",
"$. c #F50101",
"%. c #FE0303",
"&. c #FF0807",
"*. c #F50B0B",
"=. c #FE0808",
"-. c #C03333",
";. c #9F5353",
":. c #AA5A59",
">. c #B15D5D",
",. c #BB6262",
"<. c #DB4141",
"1. c #E44141",
"2. c #E94242",
"3. c #F34141",
"4. c #FE4343",
"5. c #C66868",
"6. c #D26E6E",
"7. c #DB7171",
"8. c #E16363",
"9. c #E17171",
"0. c #E97272",
"q. c #F17272",
"w. c #FC7373",
"e. c #0B8400",
"r. c #0E8C00",
"t. c #168301",
"y. c #1A8B03",
"u. c #0D9E00",
"i. c #119500",
"p. c #1A9402",
"a. c #119D00",
"s. c #1B9D02",
"d. c #11A402",
"f. c #1DA403",
"g. c #13AC01",
"h. c #1DAA02",
"j. c #16B700",
"k. c #1FB202",
"l. c #14B900",
"z. c #20AE05",
"x. c #22B705",
"c. c #20BA02",
"v. c #16C400",
"b. c #19C600",
"n. c #1CCB00",
"m. c #18D100",
"M. c #1BDF00",
"N. c #22C303",
"B. c #25CD04",
"V. c #26D504",
"C. c #28D606",
"Z. c #26DE03",
"A. c #1DEE00",
"S. c #27E303",
"D. c #2AE206",
"F. c #2CED06",
"G. c #2FED0A",
"H. c #2DF406",
"J. c #21FC00",
"K. c #2CFD04",
"L. c #34FF0A",
"P. c #7EAE78",
"I. c #010882",
"U. c #020A93",
"Y. c #00029D",
"T. c #020A9B",
"R. c #262982",
"E. c #0003A4",
"W. c #030BA3",
"Q. c #0003AA",
"!. c #050CAA",
"~. c #0003B2",
"^. c #272DB0",
"/. c #292EB6",
"(. c #292FBA",
"). c #2930BB",
"_. c #414280",
"`. c #737F80",
"'. c #2A31C3",
"]. c #878585",
"[. c #8D8C8C",
"{. c #939393",
"}. c #9D9D9C",
"|. c #A09F9F",
" X c #8EB787",
".X c #92BC8A",
"XX c #ADAFAD",
"oX c #B8AFB9",
"OX c #BCBCBC",
"+X c #98C390",
"@X c #A0CD97",
"#X c #A9D9A0",
"$X c #B3E7AA",
"%X c #B7EEAE",
"&X c #B9F5AF",
"*X c #BAFCAF",
"=X c #BBFFB0",
"-X c #C0FFB3",
";X c #C3C1C0",
":X c #C7C8C6",
">X c #CAC8C7",
",X c #C4CDCC",
"<X c #CCCCCB",
"1X c #D3CBD3",
"2X c #D8CFD8",
"3X c #CED8D7",
"4X c #D6D5D4",
"5X c #D8D7D7",
"6X c #E2DFDF",
"7X c #E1E2DF",
"8X c #E1D8E1",
"9X c #D8E2E1",
"0X c #E5E4E3",
"qX c #EEE4ED",
"wX c #E4EFEE",
"eX c #EDECEB",
"rX c #F0EDEC",
"tX c #F0F1EE",
"yX c #E1F2F2",
"uX c #F5F4F3",
"iX c #F9F7F6",
"pX c #F9F8F7",
"aX c #FCF2FC",
"sX c #F2FDFC",
"dX c #FEFEFE",
"fX c None",
/* pixels */
"fXfXfXfXfXfXfXfXfXfXfXfXfXfXfXfXfXfXfXfXfXfXfXfXfXfXfXfXfXfXfXfX",
"fXfXfXfXfXfXfXU 8 0 w w r t r t t 9 q p i i i i p f s a d fXfXfX",
"fXfXfXfXfXfXfXr +.+.@.%.&.=.=.=.&.&.&.$.$.%.$.$.$.@.$.@.[   fXfX",
"fXfXfXfXfXfXfX` O.o.@.*.%.%.%.%.%.&.&.=.&.&.&.&.&.&.$.#.o.% fXfX",
"fXfXfXfXfXfX( ] O.O.#.$.&.&.=.=.=.=.&.=.=.=.&.&.=.%.@.o.#.& fXfX",
"fXfXfXfXfXfXY [ ..X.o.@.$.%.%.%.%.%.%.%.%.%.%.%.%.$.@.o.o.7 fXfX",
"fXfXfXfXfXfXI -.<.<.1.2.3.4.4.4.4.4.4.4.4.4.4.4.3.3.2.<.2.g fXfX",
"fXfXfXfXfXfXW dXdXdXdXdXdXdXdXdXdXdXdXdXdXdXdXdXdXdXdXdXdX[.  fX",
"fXfXfXfXfXfXQ iXiXpXdXpXpXdXpXpXpXpXpXdXdXdXdXdXdXdXdXpXdX}.  fX",
"fXfXfXfXfXfX^ dXdXdXdXdXdXdXdXdXdXdXdXdXdXdXdXdXdXdXdXpXdXXX  fX",
"fXfXfXfXfXfX6 [.].{.]./ Q / E ! [.].) ,XdXdXdXdXdXdXdXdXdX}.  fX",
"fXfXl d.d.g.k.P.oXXXOX5X6XyX8.X.} { ] e ,XdXdXdXdXdXdXiXdX{.  fX",
"fXT n.G.L.L.K.=XdXdXdXdXdXdXw.%.*.#.#.u ) tXdXdXdXdXpXeXpX[.  fX",
"fXB b.V.S.H.J.*XdXpXdXdXpXdXw.$.#.....` D /.'.'.).).).^.).J   fX",
"fXm n.V.Z.F.J.=XdXdXdXdXdXdXw.+.o... .] V Y.~.Q.Q.Q.E.Y.Q.A   fX",
"fXb n.N.V.Z.A.=XdXdXdXdXdXdXq.o... .| [ < U.!.!.W.W.W.T.W.Z fXfX",
"fXx N.N.B.C.M.&XdXdXdXdXpXdX0... .| } [ > I.W.W.W.T.T.U.T.2 fXfX",
"fXx k.c.N.B.m.&XdXdXdXdXdXdX9. .| } { [ > I.!.W.T.W.G I.W.; fXfX",
"fXx k.k.c.c.b.%XdXdXdXdXpXdX7.} } { [ ] $ C G H U.T., 2 , o fXfX",
"fXx h.h.x.x.l.$XdXpXdXdXpXdX6.{ { [ [ ' O     : T.L   fXfXfXfXfX",
"fXz f.f.f.z.g.#XaXtXuXuXrXsX5.[ [ ] ' ' + fXfX1 T.Z   fXfXfXfXfX",
"fXc s.s.s.z.d.@XqX0X0X0X7XyX,.] ] ] ' _ o fXfX_.K X fXfXfXfXfXfX",
"fXn i.p.s.s.u.+X8X4X4X4X4X5X>.' ' ' ` u o fXfXR.2   fXfXfXfXfXfX",
"fXM r.y.p.s.i. X1X:X<X<X>X3X:.` ' _ ` y   fXfXV   fXfXfXfXfXfXfX",
"fXR e.z t.p.i..X2X<X<X:X;X,X;._ _ _ ` 7   fXfX  fXfXfXfXfXfXfXfX",
"fXfX  @ x p.h 5 P P P 4 3 3 + O . . .   fXfXfXfXfXfXfXfXfXfXfXfX",
"fXfXfXfX- p.# fXfXfXfXfXfXfXfXfXfXfXfXfXfXfXfXfXfXfXfXfXfXfXfXfX",
"fXfXfXfX4 v = fXfXfXfXfXfXfXfXfXfXfXfXfXfXfXfXfXfXfXfXfXfXfXfXfX",
"fXfXfXfXfX* j fXfXfXfXfXfXfXfXfXfXfXfXfXfXfXfXfXfXfXfXfXfXfXfXfX",
"fXfXfXfXfXfX= fXfXfXfXfXfXfXfXfXfXfXfXfXfXfXfXfXfXfXfXfXfXfXfXfX",
"fXfXfXfXfXfX    fXfXfXfXfXfXfXfXfXfXfXfXfXfXfXfXfXfXfXfXfXfXfXfX",
"fXfXfXfXfXfXfXfXfXfXfXfXfXfXfXfXfXfXfXfXfXfXfXfXfXfXfXfXfXfXfXfX"
};
