/* XPM */
static char *zbuffermaker__[] = {
/* columns rows colors chars-per-pixel */
"32 32 256 2",
"   c #010101",
".  c #0D0703",
"X  c #0E0A06",
"o  c #160D04",
"O  c #271A0C",
"+  c #261706",
"@  c #271D10",
"#  c #142C0C",
"$  c #0E3F01",
"%  c #123109",
"&  c #163B0A",
"*  c #133907",
"=  c #1C3E10",
"-  c #2B2507",
";  c #36230C",
":  c #3A250B",
">  c #3F2A0E",
",  c #3E2B14",
"<  c #203E17",
"1  c #24371D",
"2  c #3F301E",
"3  c #2A3C25",
"4  c #3E3223",
"5  c #313B3B",
"6  c #452D0E",
"7  c #59360E",
"8  c #53310A",
"9  c #432E13",
"0  c #473114",
"q  c #4C3314",
"w  c #453319",
"e  c #4C3A1A",
"r  c #48341A",
"t  c #543410",
"y  c #503D1F",
"u  c #5D3F1E",
"i  c #4E3B20",
"p  c #4C3E2C",
"a  c #453B2E",
"s  c #513F25",
"d  c #18410B",
"f  c #1C4C0D",
"g  c #164606",
"h  c #1E530E",
"j  c #21560F",
"k  c #275E0B",
"l  c #25481A",
"z  c #215610",
"x  c #255C12",
"c  c #2C5E13",
"v  c #1C7A00",
"b  c #22630D",
"n  c #217A04",
"m  c #266312",
"M  c #2A6315",
"N  c #2A6B14",
"B  c #276913",
"V  c #366810",
"C  c #346716",
"Z  c #2C7415",
"A  c #2E7A16",
"S  c #317919",
"D  c #376C26",
"F  c #6B491E",
"G  c #66431A",
"H  c #734B1A",
"J  c #5C4222",
"K  c #564225",
"L  c #4F4531",
"P  c #524937",
"I  c #654926",
"U  c #6D5534",
"Y  c #467636",
"T  c #3D4746",
"R  c #23485D",
"E  c #494E49",
"W  c #4A4946",
"Q  c #585448",
"!  c #475B5F",
"~  c #5C6D40",
"^  c #656E5D",
"/  c #4A5D60",
"(  c #555C62",
")  c #4F6264",
"_  c #586065",
"`  c #526260",
"'  c #676668",
"]  c #60696D",
"[  c #646465",
"{  c #716E6B",
"}  c #73706E",
"|  c #6B6E70",
" . c #757272",
".. c #7D7D7D",
"X. c #8F7A64",
"o. c #2F8217",
"O. c #2F8019",
"+. c #318D18",
"@. c #67825C",
"#. c #669457",
"$. c #7BA06F",
"%. c #83807E",
"&. c #96867D",
"*. c #839A7B",
"=. c #2B6286",
"-. c #366A8F",
";. c #2D6C96",
":. c #1F7CBC",
">. c #206EA5",
",. c #2371A7",
"<. c #2A76AC",
"1. c #3277A7",
"2. c #2479B6",
"3. c #217EBF",
"4. c #2D7BB0",
"5. c #45778F",
"6. c #49799B",
"7. c #457392",
"8. c #2880BD",
"9. c #68808C",
"0. c #789194",
"q. c #468FBB",
"w. c #5993BB",
"e. c #688FAA",
"r. c #6C92AC",
"t. c #7292A8",
"y. c #6E98B5",
"u. c #6D9BBB",
"i. c #7FACBB",
"p. c #2785C6",
"a. c #2C8BCC",
"s. c #2D86C4",
"d. c #3C96CB",
"f. c #298CD2",
"g. c #2990D7",
"h. c #2E94DA",
"j. c #3092D6",
"k. c #2B96E1",
"l. c #2F9EEB",
"z. c #339BE2",
"x. c #329EE9",
"c. c #35A8EF",
"v. c #2DABFE",
"b. c #33A4F3",
"n. c #31A9F6",
"m. c #33ABFD",
"M. c #38ADFE",
"N. c #35B2FF",
"B. c #3AB5FE",
"V. c #34BBFF",
"C. c #3ABDFD",
"Z. c #33B7F3",
"A. c #58B2DE",
"S. c #6DB2CB",
"D. c #70B0C9",
"F. c #7EB4C9",
"G. c #60A5D5",
"H. c #6FB5D2",
"J. c #40A5E0",
"K. c #44A6EB",
"L. c #47B8F3",
"P. c #45B5FD",
"I. c #6BB8E7",
"U. c #65BEE3",
"Y. c #36C0FF",
"T. c #3DC2FE",
"R. c #3CCAFF",
"E. c #31CAF9",
"W. c #37EEFF",
"Q. c #7AC7CF",
"!. c #79C2DE",
"~. c #4BC2E1",
"^. c #4AC2ED",
"/. c #53C7E8",
"(. c #5ACAE6",
"). c #43C7FF",
"_. c #47C8FB",
"`. c #48CBFF",
"'. c #50CFFD",
"]. c #4ADAF4",
"[. c #53D5FB",
"{. c #63C5E7",
"}. c #62CBFE",
"|. c #65D9FE",
" X c #51EAFF",
".X c #6FECFB",
"XX c #7AE9FF",
"oX c #7DE4FF",
"OX c #848585",
"+X c #8B8C8C",
"@X c #888582",
"#X c #928E8D",
"$X c #8A9986",
"%X c #93928C",
"&X c #8B9192",
"*X c #949595",
"=X c #9B9796",
"-X c #9B9897",
";X c #9B9B9B",
":X c #A4B69E",
">X c #9D9DA0",
",X c #8CA6B3",
"<X c #98B2B6",
"1X c #A3A3A3",
"2X c #A6A8A8",
"3X c #ADACAB",
"4X c #AAA6A4",
"5X c #B1AFAE",
"6X c #B0B0AF",
"7X c #B1AEB4",
"8X c #AFBABC",
"9X c #B4B4B3",
"0X c gray74",
"qX c #B7BBBB",
"wX c #B4C1B0",
"eX c #C2C2BF",
"rX c #84ADC1",
"tX c #87B5C6",
"yX c #A8BDC2",
"uX c #9CC4D0",
"iX c #A2C0C9",
"pX c #80C9E7",
"aX c #82D4E0",
"sX c #88D3F0",
"dX c #87DDFE",
"fX c #99DEF6",
"gX c #96DFFC",
"hX c #9DE0F0",
"jX c #93E3FF",
"kX c #9DF8FF",
"lX c #B4EDFC",
"zX c #B0FDFF",
"xX c #BEF1FB",
"cX c #C3C2C2",
"vX c #CDC8C6",
"bX c #CCCCCB",
"nX c #C8C5C9",
"mX c #D0CFCE",
"MX c #C4D8DC",
"NX c #D3D4D4",
"BX c #D8D4D3",
"VX c #D6D8D7",
"CX c #DBD9D9",
"ZX c #DEE0DE",
"AX c #E1E0DF",
"SX c #DBE5E7",
"DX c #C3F3FB",
"FX c #CDF2F8",
"GX c #E7E7E7",
"HX c #ECECEC",
"JX c #F2EFF2",
"KX c #E9F6F4",
"LX c #F4F4F4",
"PX c #F5FAFC",
"IX c #FEFEFE",
"UX c None",
/* pixels */
"UXUXUXUXUXUXUXUXUXUXUXUXUXUXUXUXUXUXUXUXUXUXUXUXUXUXUXUXUXUXUXUX",
"UXUXUXUXUXUXUXUXUXUXUXUXUXUXUXUXUXUXUXUXUXUXUXUXUXUXUXUXUXUXUXUX",
"UXUXUXUXUXUXUXUXUXUXUXUXUXUXUXUXUXUXUXUXUXUXUXUXUXUXUXUXUXUXUXUX",
"UXUXUXUXUXUXUXUXUXUXUXUXUXUXUXUXUXUXUXUXUXUXUXUXUXUXUXUXUXUXUXUX",
"UXUXUXUXUXUX5 8.UXUXUXUXUXUXUXUXUXUXUXUXUXUXUXUXUXUXUXUXUXUXUXUX",
"UXUXUXUXUXUXP c.d.Z.A.UXUXUXUXUXUXUXUXBXcX0XcXUXUXUXUXUXUXUXUXUX",
"UXUXUXUXUXUXP z.J.).'.{.S.,X1X*X@X5.&.#X*X1X;X@X;XUXUXUXUXUXUXUX",
"UXUXUXUXUXUXs d.V.`.D.%X3X3XeXVXHXIXIXIXIXIXPXIX9X1XUXUXUXUXUXUX",
"UXUXUXUXUXUXG 5.V.).F.vXIXIXIXIXIXIXIXPXPXIXPXIX+XUXUXUXUXUXUXUX",
"UXUXUXUXUXUXu ) V.T.H.9XIXLXPXIXIXIXIXIXIXIXIXbX-XUXUXUXUXUXUXUX",
"UXUXUXUXUXUXt ` V.T.pX6XIXIXIXIXIXIXHXCXHXIXIX#XiXUXUXUXUXUXUXUX",
"UXUXUXUXUXUX8 ) V.xXKX3X6X6X1X;X+X@X&X@X6XIXBX0.XX^ UXUXUXUXUXUX",
"UXUXUXUXUXp 7 / B.dXfXuX8X8XqXeXbXNXSX2XLXIX-XQ.XXaX%XUXUXUXUXUX",
"UXUXUXUXUXr 7 ! N.c.V.C.).'.|.oXhXMX+XNXIXGX#XkX].[.U.UXUXUXUXUX",
"UXUXUXUXUXq 7 ! n.q.C.T.R.R.R.E./.0.5XIXIX7XwXIX.XW.(.UXUXUXUXUX",
"UXUXUXUXUX6 q W m.N.B.V.T.T.R.^.i.%.IXIXPX;XPXPXFX X~.UXUXUXUXUX",
"UXUXUXUXQ q 9 L x.M.B.}.DXjXZ.!.| GXIXIXmXcXIXPXIXzX~.UXUXUXUXUX",
"UXUXUXUXw 0 , s j.M.P.gXlXDXsX9.2XIXPXIX5X9X>X*X1X<XtXUXUXUXUXUX",
"UXUXUXUXw w a i a.m.m.v.N.L.rX} IXIXIXIXAX^ qXJXAXBXeX*XUXUXUXUX",
"UXUXUXUX> 4 UXr s.b.b.N.n.I.] mXIXIXVXcXY v #.IXIXIXIX..UXUXUXUX",
"UXUXUXUX: UXUX9 4.l.x.n.K.t.} IXIXJXnX&.b +.Y *.:XLXIX..CXUXUXUX",
"UXUXUX@ ; UXUX9 ;.h.z.k.G.( mXIXIXHXnXX.V O.N n D $X$.' eXUXUXUX",
"UXUXUXO O UX  : =.g.h.p.q.( @X .{ [ W I C o.A S c b z 3 z l UXUX",
"UXUXUXO o UX  ; =.<.1.2.<.u.e.r.u.y.U F C Z Z A N Z x M b l < % ",
"UXUXUXUXUXUXUX+ R >.,.3.2.3.f.a.2.Q G I c o.Z Z N N x m z f g % ",
"UXUXUXUXUXUXUXUXUXUXUXUX7.6.6.-.T H p K M N B Z B B m z m j & 1 ",
"UXUXUXUXUXUXUXUXUXUXUXUXUXUXUXUXF 0 UXy c B M A B x m j h f & UX",
"UXUXUXUXUXUXUXUXUXUXUXUXUXUX  e J X UXr z B M m m x z z f f & UX",
"UXUXUXUXUXUXUXUXUXUXUXUXUXUXUX. o UX. e x Z N z b h f f d = # UX",
"UXUXUXUXUXUXUXUXUXUXUXUXUXUXUXUXUXUXUX- $ g d d l 1 UXUXUXUXUXUX",
"UXUXUXUXUXUXUXUXUXUXUXUXUXUXUXUXUXUXUXUXUXUXUXUXUXUXUXUXUXUXUXUX",
"UXUXUXUXUXUXUXUXUXUXUXUXUXUXUXUXUXUXUXUXUXUXUXUXUXUXUXUXUXUXUXUX"
};
