/* XPM */
static char *floormaker__[] = {
/* columns rows colors chars-per-pixel */
"16 16 120 2",
"   c #103D7A",
".  c #8F1115",
"X  c #B11312",
"o  c #B41919",
"O  c #A72424",
"+  c #A72C3F",
"@  c #A73635",
"#  c #C70303",
"$  c #C80707",
"%  c #D00606",
"&  c #D50504",
"*  c #DE0505",
"=  c #DE0606",
"-  c #D20909",
";  c #D50C0C",
":  c #DD0F0F",
">  c #CD1110",
",  c #CF1616",
"<  c #C41C1C",
"1  c #D41515",
"2  c #D61616",
"3  c #DC1515",
"4  c #DF1515",
"5  c #D11818",
"6  c #D41E1F",
"7  c #E80000",
"8  c #E80100",
"9  c #E11011",
"0  c #E61414",
"q  c #E41717",
"w  c #F01F1F",
"e  c #DE3132",
"r  c #E02C2C",
"t  c #833F5D",
"y  c #983852",
"u  c #A03045",
"i  c #994647",
"p  c #97585A",
"a  c #B65355",
"s  c #8E4D6C",
"d  c #83567A",
"f  c #83597D",
"g  c #B75E61",
"h  c #E75656",
"j  c #EA5152",
"k  c #E95353",
"l  c #EA5353",
"z  c #EC5252",
"x  c #E95F5F",
"c  c #E86161",
"v  c #EE6262",
"b  c #E96767",
"n  c #EB6666",
"m  c #EA6868",
"M  c #EF6868",
"N  c #EA6C6C",
"B  c #EA6F6F",
"V  c #124384",
"C  c #204E8A",
"Z  c #224F8B",
"A  c #22508C",
"S  c #3D5A82",
"D  c #34609A",
"F  c #2F66AD",
"G  c #326AB2",
"H  c #3B6FB2",
"J  c #3E6FB0",
"K  c #306DBC",
"L  c #3E70B1",
"P  c #3270BF",
"I  c #735A83",
"U  c #48688B",
"Y  c #76638D",
"T  c #676B9B",
"R  c #606D9C",
"E  c #536EA2",
"W  c #5777AC",
"Q  c #407CBC",
"!  c #4B7FBC",
"~  c #4D7EBC",
"^  c #3376C6",
"/  c #3477C7",
"(  c #377FCB",
")  c #4078C2",
"_  c #417EC5",
"`  c #427CC7",
"'  c #427FC7",
"]  c #AF7E86",
"[  c #5281BD",
"{  c #3680CC",
"}  c #3683CE",
"|  c #3784D0",
" . c #3693DE",
".. c #3797DE",
"X. c #3894DE",
"o. c #399FE6",
"O. c #4681C2",
"+. c #4381C5",
"@. c #4583C5",
"#. c #4785C5",
"$. c #4486CC",
"%. c #468ACC",
"&. c #538BC4",
"*. c #5591C9",
"=. c #4490D1",
"-. c #43A5EB",
";. c #40A5EC",
":. c #AD8386",
">. c #A78796",
",. c #AD9095",
"<. c #879DBB",
"1. c #899EBB",
"2. c #A5A0A4",
"3. c #A6A2A6",
"4. c #94A6C5",
"5. c #E4F4FE",
"6. c #EFFBFF",
"7. c #E8FCFF",
"8. c #EBFFFF",
"9. c None",
/* pixels */
"9.9.9.9.9.9.9.9.9.9.9.9.9.9.9.9.",
"9.9.9.9.9.9.9.9.<.1.9.9.9.9.9.9.",
"9.9.9.9.9.9.  A C Z V 9.9.9.9.9.",
"9.9.9.9.9.9.F L H J G 9.9.9.9.9.",
"9.9.9.9.9.9.K ` D ) ^ 9.9.9.9.9.",
"9.9.9.9.9.9.^ +.S _ ^ 9.9.9.9.9.",
"9.9.9.9.9.9.{ +.U $.( 9.9.9.9.9.",
"9.9.9.9.9.9.{ @.9.#.| 4.9.9.9.9.",
"9.9.9.9.8 s X.O.+ ~  .d 8 9.9.9.",
"9.9.9.9.9.f -.%.u [ ;.Y 9.9.9.9.",
"9.9.9.e 9.I X.=.y ~ o.T 9.r 9.9.",
"9.9.9.w 5 R &.Q t W *.E 6 0 9.9.",
"9.9.9.5 g 7.6.>.. ] 8.5.a > 9.9.",
"9.9.1 < p 2.,.@ X O :.3.i o 1 9.",
"9.v = 0 ; $ $ : 4 9 & # - 4 = l ",
"9.B N 9.z z z h x c b M 9.m b 9."
};
