/* XPM */
static char *zbuffermaker__[] = {
/* columns rows colors chars-per-pixel */
"16 16 130 2",
"   c #0D0501",
".  c #100500",
"X  c #061900",
"o  c #1E160C",
"O  c #1E170D",
"+  c #083100",
"@  c #133707",
"#  c #16390A",
"$  c #312515",
"%  c #392616",
"&  c #322718",
"*  c #452907",
"=  c #442D0F",
"-  c #432F14",
";  c #4C351B",
":  c #4B3923",
">  c #513D22",
",  c #154107",
"<  c #154804",
"1  c #1F4904",
"2  c #145502",
"3  c #1F580C",
"4  c #245A12",
"5  c #385D15",
"6  c #365C1B",
"7  c #23610F",
"8  c #25670E",
"9  c #266013",
"0  c #2B6B16",
"q  c #2C6E15",
"w  c #297015",
"e  c #257910",
"r  c #2B7817",
"t  c #356227",
"y  c #416517",
"u  c #524B3E",
"i  c #674828",
"p  c #436E22",
"a  c #46663B",
"s  c #2C4655",
"d  c #3C4D51",
"f  c #34627E",
"g  c #655A4C",
"h  c #4A5E69",
"j  c #776B65",
"k  c #448731",
"l  c #357094",
"z  c #3C7191",
"x  c #2E72A2",
"c  c #367EAC",
"v  c #337FB4",
"b  c #437DA6",
"n  c #769EB1",
"m  c #3B8BC4",
"M  c #388DC6",
"N  c #3A94CF",
"B  c #3A94D2",
"V  c #2793E0",
"C  c #2DA8FF",
"Z  c #2EB4FC",
"A  c #36B4F3",
"S  c #31B1F9",
"D  c #3AB2FF",
"F  c #6BA1C4",
"G  c #67BED6",
"H  c #74B7D4",
"J  c #45ADE1",
"K  c #52AEE0",
"L  c #54BEE9",
"P  c #44BFFF",
"I  c #31C2FE",
"U  c #3ED5FF",
"Y  c #58C7D9",
"T  c #79C5D9",
"R  c #5DC6EF",
"E  c #5FC8FF",
"W  c #6EDBEF",
"Q  c #919497",
"!  c #97A992",
"~  c #849AA3",
"^  c #9AA9B4",
"/  c #A2A4A5",
"(  c #A2A8A9",
")  c #A8B3A0",
"_  c #A0B1B5",
"`  c #A1B9BA",
"'  c gray73",
"]  c #BCBCBC",
"[  c gray74",
"{  c gray",
"}  c #BFBFBE",
"|  c #C3BFBF",
" . c #C2D0BE",
".. c #8EB6C4",
"X. c #94B8C6",
"o. c #9CB9C1",
"O. c #B1C0C4",
"+. c #B9C9CA",
"@. c #94CCE2",
"#. c #92DBF7",
"$. c #96E3FC",
"%. c #85F9FF",
"&. c #C2C3C3",
"*. c #C1C3C5",
"=. c #CAC7C6",
"-. c #C7C9CA",
";. c #D0CECC",
":. c #D1C9D0",
">. c #D2D2D2",
",. c #D3D4D2",
"<. c #D9D4D1",
"1. c #D8D8DC",
"2. c #DCD9DC",
"3. c #E3DFDE",
"4. c #EBE2DD",
"5. c #F0E2DC",
"6. c #C9E5E7",
"7. c #E5E2E1",
"8. c #E4E4E5",
"9. c #E6E6E6",
"0. c #EEE7EF",
"q. c #F1F2F2",
"w. c #F7F2F1",
"e. c #F4F7F8",
"r. c #FFFEFB",
"t. c #FDFEFE",
"y. c #FEFEFE",
"u. c #FFFEFE",
"i. c gray100",
"p. c None",
/* pixels */
"p.p.p.p.p.p.p.p.p.p.p.p.p.p.p.p.",
"p.p.p.p.p.p.p.p.p.p.p.p.p.p.p.p.",
"p.p.p.h F p.p.p.p.p.p.p.p.p.p.p.",
"p.p.p.d S L X.*.} ' } } &.p.p.p.",
"p.p.p.u A H 4.e.i.i.i.i.| p.p.p.",
"p.p.p.: J @.5.w.7.>.8.8._ p.p.p.",
"p.p.p.- K #...o.O.( 3.+.Y ` p.p.",
"p.p.p.= N Z I U G =.q.;.%.W p.p.",
"p.p.g * M P $.R ~ r.1.2.6.T p.p.",
"p.p.$ ; c D E n <.i.) ! 0.-.p.p.",
"p.p.& p.l C B / i.;.p k  .,.} p.",
"p.p.o . f V b Q ^ j y e 8 t a p.",
"p.p.p.p.s x v m z i 5 r q 7 3 + ",
"p.p.p.p.p.p.p.p.> % 6 w 0 9 4 @ ",
"p.p.p.p.p.p.p.p.o   1 2 < , # X ",
"p.p.p.p.p.p.p.p.p.p.p.p.p.p.p.p."
};
