/* XPM */
static char *ProjIcon___x__x__[] = {
/* columns rows colors chars-per-pixel */
"32 32 235 2",
"   c #395366",
".  c #414649",
"X  c #575A5C",
"o  c #595D5F",
"O  c #4F5E6A",
"+  c #5C5F61",
"@  c #425E74",
"#  c #56656F",
"$  c #5B666B",
"%  c #5D686C",
"&  c #4B657C",
"*  c #506777",
"=  c #64686C",
"-  c #6D716E",
";  c #616D73",
":  c #63727B",
">  c #707477",
",  c #727679",
"<  c #737E7F",
"1  c #797D7F",
"2  c #84837F",
"3  c #0C4B84",
"4  c #165993",
"5  c #1C5B91",
"6  c #1B5F9B",
"7  c #1B619C",
"8  c #286396",
"9  c #256A9E",
"0  c #326992",
"q  c #3B739B",
"w  c #1763A6",
"e  c #1E65A3",
"r  c #1F68A6",
"t  c #1968B1",
"y  c #2067A7",
"u  c #276AA0",
"i  c #226CAD",
"p  c #2D75AE",
"a  c #3F7BA4",
"s  c #246EB0",
"d  c #2671B4",
"f  c #2473BB",
"g  c #2B79BC",
"h  c #347CB8",
"j  c #466A87",
"k  c #5A6F81",
"l  c #5F798F",
"z  c #47779A",
"x  c #43789E",
"c  c #5A7A95",
"v  c #697D8D",
"b  c #7C7F82",
"n  c #447CA4",
"m  c #487CA1",
"M  c #267BC6",
"N  c #277DCB",
"B  c #2B7FCB",
"V  c #6F8187",
"C  c #7F8284",
"Z  c #7B868B",
"A  c #4C80A5",
"S  c #4280AC",
"D  c #4785BD",
"F  c #568AB7",
"G  c #528BBF",
"H  c #2D81CC",
"J  c #3F83C0",
"K  c #3E8BC1",
"L  c #3584CC",
"P  c #3986CC",
"I  c #2781D2",
"U  c #2A83D3",
"Y  c #2D87DA",
"T  c #2E8BDD",
"R  c #3386D2",
"E  c #3887D0",
"W  c #3689D4",
"Q  c #3989D2",
"!  c #368DDC",
"~  c #3B8EDA",
"^  c #3B95D3",
"/  c #3C91DC",
"(  c #3C9CDB",
")  c #2D8DE3",
"_  c #2C93E5",
"`  c #2F96E8",
"'  c #2C99EC",
"]  c #3493E5",
"[  c #3C95E3",
"{  c #3398E2",
"}  c #3A9CE6",
"|  c #3596EB",
" . c #349DE9",
".. c #3D9BEB",
"X. c #359EF2",
"o. c #3B9CF2",
"O. c #3EA0E7",
"+. c #3EA4ED",
"@. c #3FA8ED",
"#. c #37A5F1",
"$. c #3CA4F4",
"%. c #3AA4FB",
"&. c #3BABFB",
"*. c #4290CE",
"=. c #5D93C2",
"-. c #4797DD",
";. c #5C9BD3",
":. c #509ADD",
">. c #589DDA",
",. c #6698C4",
"<. c #6D9BC2",
"1. c #6098CB",
"2. c #77A1C7",
"3. c #73AEDE",
"4. c #4097E6",
"5. c #439AE5",
"6. c #4B9BE0",
"7. c #409AEA",
"8. c #419EF3",
"9. c #41A6EC",
"0. c #41A4F1",
"q. c #44ACF4",
"w. c #4AADF2",
"e. c #43A5FB",
"r. c #48A5F9",
"t. c #45ABFC",
"y. c #49ADFE",
"u. c #58AFF1",
"i. c #53AEFD",
"p. c #45B0F6",
"a. c #4BB2F5",
"s. c #46B2FC",
"d. c #4BB5FE",
"f. c #4DBBFE",
"g. c #55B5F4",
"h. c #5AB0F0",
"j. c #53B6FE",
"k. c #58B5FF",
"l. c #52BCFE",
"z. c #5DB9FE",
"x. c #64A9E4",
"c. c #6AB2ED",
"v. c #62B5F2",
"b. c #69B7F0",
"n. c #64BEFB",
"m. c #76BFF3",
"M. c #7FBEF0",
"N. c #4CC1FF",
"B. c #52C4FF",
"V. c #5BC4FF",
"C. c #63C2FB",
"Z. c #828587",
"A. c #86898B",
"S. c #8B8E8F",
"D. c #8C928F",
"F. c #93918E",
"G. c #8B8F92",
"H. c #8D9092",
"J. c #8D9398",
"K. c #919495",
"L. c #969995",
"P. c #9A9A96",
"I. c #919698",
"U. c #95999B",
"Y. c #999C9F",
"T. c #A19F98",
"R. c #A0A099",
"E. c #A9A198",
"W. c #979EA2",
"Q. c #999EA1",
"!. c #9CA2A4",
"~. c #9CA5A9",
"^. c #9CABAE",
"/. c #9FAEB1",
"(. c #A1A5A6",
"). c #A2A7A9",
"_. c #A4AAAC",
"`. c #A9AFAE",
"'. c #A5B0AE",
"]. c #A0AFB1",
"[. c #AAAEB0",
"{. c #A3B2B4",
"}. c #ACB2B4",
"|. c #A4B5B8",
" X c #AEB4BA",
".X c #ACB9BA",
"XX c #B1B5B6",
"oX c #B0B7BB",
"OX c #B4B9BD",
"+X c #BABEBD",
"@X c #80A7CA",
"#X c #8AAECD",
"$X c #B5BBC0",
"%X c #B8BFC0",
"&X c #89BEE6",
"*X c #82BEEF",
"=X c #90BFE4",
"-X c #B0C2C5",
";X c #BBC3C5",
":X c #B6C7C9",
">X c #BFC5C9",
",X c #BECDCF",
"<X c #91C7F2",
"1X c #94CAF4",
"2X c #99CAF3",
"3X c #A5D0F5",
"4X c #ACD4F7",
"5X c #AED7F9",
"6X c #B7DBF9",
"7X c #C1C7C7",
"8X c #CDCBC7",
"9X c #C0C7CB",
"0X c #C3C9CC",
"qX c #D1CDC9",
"wX c #C6CDD1",
"eX c #C9CED2",
"rX c #D1D4D3",
"tX c #DDDBD6",
"yX c #D2D6D8",
"uX c #DDDEDC",
"iX c #D9DEE2",
"pX c #DCE2E5",
"aX c #DFE5E9",
"sX c #C6E2FB",
"dX c #CBE6FC",
"fX c #CEE8FD",
"gX c #E0E9E7",
"hX c #E2E7EA",
"jX c #E3E8EC",
"kX c #E7ECF0",
"lX c #E9EEF2",
"zX c #ECF1F5",
"xX c #E3F1FF",
"cX c #FDFEFE",
"vX c None",
/* pixels */
"vXvXvXvXvXvXvXvXvXvXvXvXvXvXvXvXvXvXvXvXvXvXvXvXvXvXvXvXvXvXvXvX",
"vXvXvXvXvXvXvXvXvX[.vXvXvXvXvXvXvXvXvXvXvXvXvXvXvXvXvXvXvXvXvXvX",
"vXvXvXvXvXvXvXvXvX XwX;X$XoX X_.~.!.!.!.Q.Q.(.OX[.I.vXvXvXvXvXvX",
"vXvXvXvXvXvXvXvXvX>XlXiXkXkXkXlXlXlXlXlXlXlXlXzXeXyX}.vXvXvXvXvX",
"vXvXvXvXvXvXvXvXvX9XeX_.gXpXpXpXiXpXiXiXaXiXiXjX>XiXcXOXvXvXvXvX",
"vXvXvXvXvXvXvXvXvX0XeX$XzXhXjXjXjXjXhXgXjXjXpXhX9XQ.9X>XJ.vXvXvX",
"vXvXvXvXvXvXvXvXvXZ.A.= Y.U.!.).W.U.I.I.J.A.b 1 , > _.aX9XvXvXvX",
"vXvXvXvXvXvXvXZ.[.K.I.G.K.H.Z.C Z.A.A.G.U._.XX+X`.o + }.>XvXvXvX",
"vXvXvXvXvXvXvXrXrX;X;X7X+XXXXX}.'.!.Q.!.)._.'.}.!.(.Y.o G.vXvXvX",
"vXvXvXvXvXg j tX~.{.{.{.'.].^.].'.].|.|.{.{.^.{.v Y.cX!.. vXvXvX",
"vXvXvXvXh H c uX!.:X:X:X-X,XpXgXpX;X.X.X{.{._.'.1 F.qXqX2 vXvXvX",
"vXvXvXvX5 8 O E.- D.D.K.L.R.R.P.L.Z : ; $ $ # *   & v * v @ 3 vX",
"vXvX*.p u 9 0 z q a q x A x n S K ( ( ^ ^ ^ ( @.q.q.q.$.+.q.%.3.",
"vXvX .f.d.f.f.f.N.N.N.f.N.N.N.N.B.B.B.B.B.B.B.B.f.l.B.j.f.f.&.&X",
"vXvX} f.d.f.f.f.f.f.f.N.N.w.a.a.B.a.a.p.s.w.w.f.f.f.d.d.f.d.&.<X",
"vXvX} f.d.d.f.f.f.f.f.a.9.@.a.O.w.w.C.V.@.@.g.q.f.f.f.d.d.f.$.vX",
"vXvX} d.d.s.d.f.f.f.p.p.l.@. .z.V.B.N.V.g. .O.@.s.f.f.d.d.d.o.vX",
"vXvX5.d.d.d.f.d.f.f.@.p.l.f. .s.a.b.a.a.a.a.+. .s.f.f.d.d.d.X.vX",
"vXvX5.s.d.d.d.d.f.j.} _ a.p.2X2X<XxX2X#.p.@.l.q.w.f.f.d.d.d.X.vX",
"vXvX6.t.y.y.d.d.d.f.q.d.f.v.sX3X3X3XsXg.s.j.l.g.t.f.y.y.y.y.| vX",
"vXvX:.t.y.y.d.d.f.w.0.j.s.C.4X*.x.-.sXh.s.l.s.0.s.d.s.y.t.y.] vX",
"vXvX>.%.y.y.y.y.y.q.] _ ' u.fX4X6X4XsXq.X.` ] s.d.y.d.y.t.e.! vX",
"vXvX;.o.e.e.t.y.t.} r.9.q.w.<X1Xc.dXM.q.q.r.w.0.y.y.e.e.r.8.Q vX",
"vXvX;.| 8.e.e.t.y.| X.s.j.j.q.e.p.w.q.d.f.f.j.0.$.y.r.e.8...P vX",
"vXvX,.Y 4.7.e.e.t.e.) %.q.t.y.n.n.j.y.t.$.) ) ) e.e.8.7.[ ! J vX",
"vXvX<.B ~ [ ..8.r.8.T y.y.e.r.k.k.y.y.k.i.T T ..o.o...[ ~ R D vX",
"vXvX2.M P Q ~ [ 7.8.U Y ] | y.e.y.o.) e.i.] I ! ! ..! E L L G vX",
"vXvX@XM P L L ~ ! [ ! Q R N 8.t.o.N U I Y N / R ! Q P P L B =.vX",
"vXvX#XM P P L B R L f L R W M H M ~ 4.! L R ~ Q L L L L P B =.vX",
"vXvXvXB Q E Q Q Q Q B g L / W L ~ 4.~ ~ / ~ L E P Q Q Q E L =.vX",
"vXvXvXt h d d d i y y 7 4 4 7 e e y y i i i i d s s s s i w F vX",
"vXvXvXvXvXvXvXvXvXvXvXvXvXvXvXvXvXvXvXvXvXvXvXvXvXvXvXvXvXvXvXvX"
};
