/* XPM */
static char *ProjIcon___x__x__[] = {
/* columns rows colors chars-per-pixel */
"16 16 196 2",
"   c #7C7D7E",
".  c #2878B5",
"X  c #5F7F9B",
"o  c #737C80",
"O  c #1E77C6",
"+  c #287BC7",
"@  c #2178C8",
"#  c #297DCA",
"$  c #2B7ECA",
"%  c #297ECD",
"&  c #4580AB",
"*  c #528AAD",
"=  c #4981B3",
"-  c #4B84B6",
";  c #4484BD",
":  c #4A85B9",
">  c #4D88BC",
",  c #538DB2",
"<  c #5088B9",
"1  c #5C94B7",
"2  c #5E96B8",
"3  c #2F83CF",
"4  c #3182CB",
"5  c #3282CB",
"6  c #2982D1",
"7  c #2A84D5",
"8  c #2A84D6",
"9  c #2E86D6",
"0  c #2D88DA",
"q  c #3086D4",
"w  c #3992D5",
"e  c #3E91DC",
"r  c #3F91DC",
"t  c #2F8DE2",
"y  c #328EE1",
"u  c #3790E1",
"i  c #3593E6",
"p  c #3B92E2",
"a  c #3A9EE7",
"s  c #3696E9",
"d  c #3997EA",
"f  c #3B9DEB",
"g  c #389CEF",
"h  c #379EF9",
"j  c #3BA3EA",
"k  c #3FA0F5",
"l  c #3EA8F6",
"z  c #3BA0FA",
"x  c #3CA8FF",
"c  c #4688C3",
"v  c #4F8BC1",
"b  c #508CC2",
"n  c #518DC3",
"m  c #528EC3",
"M  c #4691C2",
"N  c #4496C9",
"B  c #4899CC",
"V  c #5390C6",
"C  c #589CC7",
"Z  c #429AD3",
"A  c #449CD7",
"S  c #479DDA",
"D  c #68A0D1",
"F  c #61A4DF",
"G  c #74A4D0",
"H  c #75A6D1",
"J  c #7FADD6",
"K  c #7BB2DC",
"L  c #409AEC",
"P  c #419CEE",
"I  c #57AEED",
"U  c #5CA8EB",
"Y  c #45A2F7",
"T  c #41A8F3",
"R  c #40A9F3",
"E  c #46A8F4",
"W  c #41AFF7",
"Q  c #44AEF6",
"!  c #45AEF6",
"~  c #47AEF6",
"^  c #4AAFF1",
"/  c #4AAFF6",
"(  c #46A3F8",
")  c #43A5FB",
"_  c #48A6FA",
"`  c #44A9F8",
"'  c #47AAF9",
"]  c #46ACFB",
"[  c #47ACFB",
"{  c #41A9FF",
"}  c #40AEFF",
"|  c #45AFFF",
" . c #4AA8FA",
".. c #49ACFF",
"X. c #4AAEFF",
"o. c #53ADF1",
"O. c #58ABF0",
"+. c #49B0F2",
"@. c #4BB0F5",
"#. c #49B2F6",
"$. c #48B2F7",
"%. c #4DB4F5",
"&. c #47B3F9",
"*. c #45B4FB",
"=. c #42B1FF",
"-. c #47B3FE",
";. c #49B1FB",
":. c #4DB6FB",
">. c #4BB3FD",
",. c #4AB0FE",
"<. c #4BB0FF",
"1. c #4AB2FE",
"2. c #4CB2FD",
"3. c #4CB5FD",
"4. c #4DB7FD",
"5. c #4DB7FE",
"6. c #44B8FD",
"7. c #4BBAFD",
"8. c #49BAFE",
"9. c #48BAFF",
"0. c #49BBFF",
"q. c #4EB8FD",
"w. c #4EB9FF",
"e. c #4DBBFE",
"r. c #4ABFFE",
"t. c #4EBDFE",
"y. c #4DBEFE",
"u. c #52B4F5",
"i. c #50B3FD",
"p. c #54BBF9",
"a. c #78AFE0",
"s. c #68B4EE",
"d. c #6FB4EE",
"f. c #74B3EB",
"g. c #4BC0FF",
"h. c #4FC1FF",
"j. c #51C0FF",
"k. c #77C0F4",
"l. c #78C0F6",
"z. c #7BC2F6",
"x. c #898D8F",
"c. c #8A8D90",
"v. c #8F9999",
"b. c #919495",
"n. c #93979B",
"m. c #94989A",
"M. c #949D9C",
"N. c #8B9AA5",
"B. c #959EA0",
"V. c #969FA1",
"C. c #9DA0A3",
"Z. c #99A2A4",
"A. c #9FA2A5",
"S. c #9CA4A5",
"D. c #9CA5A5",
"F. c #9DA6A8",
"G. c #A1A4A7",
"H. c #A4A7AA",
"J. c #A5A8AA",
"K. c #A4ADAF",
"L. c #A8ACAE",
"P. c #B6B2A9",
"I. c #A8AEB2",
"U. c #A7B1B0",
"Y. c #ADB5B2",
"T. c #AAB0B4",
"R. c #ABB1B5",
"E. c #A9B3B5",
"W. c #AEB3B6",
"Q. c #ABB4B5",
"!. c #AFB5B9",
"~. c #B1B2B3",
"^. c #B2B8BB",
"/. c #B4BABA",
"(. c #BEC2BD",
"). c #C2C5BF",
"_. c #88B0D4",
"`. c #B7BDC1",
"'. c #B8BDC1",
"]. c #8DBEEB",
"[. c #86C6F6",
"{. c #8AC5F4",
"}. c #96CBF5",
"|. c #9FCCF2",
" X c #9FCDF3",
".X c #C3C9CC",
"XX c #C6CCD1",
"oX c #CFD3D5",
"OX c #D0D6DA",
"+X c #E0E5E9",
"@X c #E8EEF2",
"#X c #E9EEF2",
"$X c #EAF0F3",
"%X c #EBF0F4",
"&X c #EDF3F7",
"*X c None",
/* pixels */
"*X*X*X*X*X*X*X*X*X*X*X*X*X*X*X*X",
"*X*X*X*X*X`.'.^.I.E.I.!.W.*X*X*X",
"*X*X*X*X*XXX+X&X&X#X#X#XOXoX*X*X",
"*X*X*X*X*Xc.C.L.H.G.G.H.x.n..X*X",
"*X*X*XN./.E.K.Z.M.Z.S.E.S.b.m.*X",
"*X*X< X P.U.Y.).(.S.M.n.o ~.  *X",
"*XK . & * , 1 2 C B M N Z A S w ",
"*XI 9.y.r.g.6.*.9.j.7.y.j.y.9.u.",
"*Xs.=.:.7.@.%.j %.p.+.a @.5.1.o.",
"*Xf.} 2.7.Q *.d.}.[.W @.! 7.=.O.",
"*Xf.x 2.2.R / |.]. XQ Q 1.2.{ U ",
"*Xa.h X.[ f R z.{.z.l E [ X.h F ",
"*XJ t ) ) g 2. .i.1. .s Y Y 0 D ",
"*X_.# A L y i _ _ d P 9 p e $ H ",
"*X*XO $ 3 + % 7 7 0 6 q 6 4 @ H ",
"*X*Xc V v : = - > m m b m m ; *X"
};
