<?xml version="1.0" encoding="UTF-8" standalone="no"?>
<!-- Created with Inkscape (http://www.inkscape.org/) -->

<svg
   xmlns:dc="http://purl.org/dc/elements/1.1/"
   xmlns:cc="http://creativecommons.org/ns#"
   xmlns:rdf="http://www.w3.org/1999/02/22-rdf-syntax-ns#"
   xmlns:svg="http://www.w3.org/2000/svg"
   xmlns="http://www.w3.org/2000/svg"
   xmlns:sodipodi="http://sodipodi.sourceforge.net/DTD/sodipodi-0.dtd"
   xmlns:inkscape="http://www.inkscape.org/namespaces/inkscape"
   id="svg2873"
   version="1.1"
   inkscape:version="0.47pre4 r22446"
   width="1000"
   height="284"
   sodipodi:docname="sludge_3.svg">
  <metadata
     id="metadata2879">
    <rdf:RDF>
      <cc:Work
         rdf:about="">
        <dc:format>image/svg+xml</dc:format>
        <dc:type
           rdf:resource="http://purl.org/dc/dcmitype/StillImage" />
        <dc:title></dc:title>
      </cc:Work>
    </rdf:RDF>
  </metadata>
  <defs
     id="defs2877">
    <inkscape:perspective
       sodipodi:type="inkscape:persp3d"
       inkscape:vp_x="0 : 0.5 : 1"
       inkscape:vp_y="0 : 1000 : 0"
       inkscape:vp_z="1 : 0.5 : 1"
       inkscape:persp3d-origin="0.5 : 0.33333333 : 1"
       id="perspective2881" />
  </defs>
  <sodipodi:namedview
     pagecolor="#ffffff"
     bordercolor="#666666"
     borderopacity="1"
     objecttolerance="10"
     gridtolerance="10"
     guidetolerance="10"
     inkscape:pageopacity="0"
     inkscape:pageshadow="2"
     inkscape:window-width="1278"
     inkscape:window-height="779"
     id="namedview2875"
     showgrid="false"
     inkscape:zoom="0.82106903"
     inkscape:cx="501.35648"
     inkscape:cy="153.50777"
     inkscape:window-x="0"
     inkscape:window-y="19"
     inkscape:window-maximized="0"
     inkscape:current-layer="svg2873" />
  <path
     style="fill:#00c500;fill-opacity:1;stroke:#000000;stroke-opacity:1;stroke-width:8;stroke-miterlimit:4;stroke-dasharray:none;stroke-linecap:round;stroke-linejoin:round"
     d="m 271,241.25882 c -2.73914,-1.06512 -3.89527,-3.70391 -3.5089,-8.00882 0.2098,-2.3375 -0.004,-4.25 -0.47406,-4.25 -1.89482,0 -13.63803,3.13257 -15.3558,4.09625 -6.84785,2.62761 -14.19337,2.17813 -21.3679,2.44379 -4.83732,0.33414 -10.91399,-0.59033 -13.50589,-0.53828 -4.73541,0.0951 -15.23692,-1.36167 -26.28745,-4.64144 -12.81717,-3.8041 -28.48924,-13.51614 -33.87345,-21.36032 -11.64719,-16.96862 -10.71984,-25.82468 -4.86317,-32.15461 1.95684,-2.11496 3.89318,-3.15254 4.81621,-3.84539 1.00699,-0.75587 7.20994,-3.31744 8.41965,-4.06424 3.51816,-2.17188 28.8805,-3.72924 33.00076,-1.63648 2.43172,1.23512 2.66941,1.90845 2.89492,8.20072 0.54307,15.15249 43.10508,22.79434 43.10508,7.73935 0,-4.08022 -3.06992,-6.85366 -6.99664,-8.23935 -0.61611,-0.21742 -2.33207,-1.3619 -3.73049,-2 -3.94547,-2.31326 -8.51698,-2.16465 -12.77287,-3.59408 -2.2,-0.82846 -4.45,-1.61667 -5,-1.75156 -5.96674,-1.46341 -24.80015,-10.01243 -27.32143,-12.40197 C 187.45179,154.56357 186.41713,154 185.87933,154 c -6.21136,-3.7056 -10.1915,-10.28164 -13.66101,-16 -2.64783,-3.69518 -3.56402,-30.05197 -2.26313,-34.35519 2.379,-5.523423 3.21318,-11.409648 6.22927,-16.64481 3.7635,-6.58883 8.27693,-13.241962 13.57461,-18.707044 4.0622,-4.027627 9.50862,-8.229408 13.54516,-10.288329 4.70818,-2.289423 6.70102,-4.564568 11.2592,-6.004627 7.27546,-1.782429 14.20427,-2.330776 22.20014,-1.122084 3.54266,0.776246 7.05904,2.128483 9.97697,4.440362 6.95673,2.673231 10.60641,8.58029 16.09787,12.779761 0.79903,0 6.65536,8.69669 9.81871,13.334691 3.16336,4.638002 6.1096,8.211444 6.54722,7.940983 C 280.35742,88.661068 280.18296,80.231112 279,79.5 c -0.55,-0.339919 -1,-1.907146 -1,-3.482727 0,-1.575581 -0.51917,-5.113843 -1.1537,-7.862805 C 275.14812,60.797543 280.33694,52 286.37426,52 c 0.82924,0 1.78582,-0.45 2.12574,-1 6.40778,-4.80359 13.6654,-3.412286 20.9012,-0.692072 4.34788,2.100666 6.73302,4.557968 9.05921,9.333276 0.84159,1.727662 2.18807,3.393665 2.99218,3.702229 1.59747,0.613005 6.54741,7.952498 6.54741,9.708124 0,0.600215 0.675,1.7663 1.5,2.5913 0.96147,0.961467 1.48436,3.359221 1.45645,6.678572 -0.041,4.873608 -0.52761,7.763814 -3.14487,18.678571 -1.32958,5.54473 -1.39249,12.29006 -0.33612,36.04123 0.78983,17.75847 0.72999,18.8139 -1.41734,25 -5.12172,14.75483 -3.05176,22.0138 7.28044,25.53115 6.24892,3.3642 9.47387,-2.43091 14.25834,-3.57238 0.78663,0 2.21163,-0.39476 3.16667,-0.87724 C 354.07751,181.44855 359.65868,180 362.79532,180 366.60274,180 369,176.23283 369,170.24966 c 0,-2.11731 0.41618,-4.27716 0.92485,-4.79966 0.50866,-0.5225 1.17062,-4.325 1.47102,-8.45 1.44895,-19.89692 3.51071,-21.43029 4.00772,-24.86558 0.13905,-0.96103 0.60306,-4.90692 0.61119,-6.58442 0.008,-1.6775 0.71372,-5.975 1.56797,-9.55 3.93329,-16.460618 5.6786,-35.102411 3.41725,-36.5 -1.65775,-1.024544 -1.23307,-14.385271 0.51879,-16.321429 5.2544,-5.807191 8.37218,-8.244279 11.24226,-8.787769 1.79357,-0.339641 3.50763,-1.016515 3.80901,-1.504165 C 397.54595,51.307624 410.61153,51.827 412,53.5 c 0.68469,0.825 1.75229,1.500506 2.37244,1.501123 1.62902,0.0016 6.44515,4.908433 8.96234,9.131077 1.19087,1.997711 3.90862,6.148445 6.03944,9.223856 5.28841,7.632743 6.22233,13.063403 3.51967,20.466366 -1.14002,3.122668 -2.45129,7.027578 -2.91394,8.677578 -0.46265,1.65 -1.52845,5.44507 -2.36845,8.43349 -0.84001,2.98841 -1.81125,10.18841 -2.15832,16 -0.34708,5.81158 -0.79712,12.81651 -1.00009,15.56651 -0.20298,2.75 -0.61222,14.83355 -0.90943,26.85233 -0.74922,30.29804 -1.14355,29.63393 19.17402,32.29211 5.66575,1.63229 8.79621,-3.12117 13.55326,-3.97124 6.85564,0 6.06793,-5.39259 4.29488,-30.1732 -0.27547,-3.85 -0.67312,-18.025 -0.88368,-31.5 -0.35285,-22.58155 -0.55115,-24.8475 -2.53248,-28.93783 -5.43352,-11.217137 2.56859,-20.973825 17.61189,-21.473553 7.63711,-0.2537 11.2279,-3.560603 8.55768,-7.881113 -4.21013,-6.812122 8.37743,-22.360589 16.35862,-20.206588 4.14397,1.118392 20.22762,1.76774 22.16012,0.894673 3.43848,-1.128074 7.10507,-0.767904 10.45455,-2.172926 0.66411,-0.523411 3.85908,-1.211735 7.09993,-1.529609 3.24085,-0.317874 6.36835,-1.05385 6.95,-1.635503 9.87506,-3.799038 21.11673,-2.622233 31.15755,-0.03205 1.1,0.466838 2.91858,1.102594 4.04129,1.412792 4.76185,3.880509 10.94205,6.621597 15.13026,11.162993 2.22555,2.590036 2.24733,2.59328 5.03612,0.75 4.64597,-3.070799 6.71686,-4.329916 8.29233,-5.041799 0.825,-0.37278 2.08802,-1.494915 2.8067,-2.493635 C 613.52539,57.817134 614.96133,57 615.99769,57 c 1.03635,0 2.16661,-0.456818 2.51167,-1.015151 2.57734,-4.170223 27.35386,-6.112584 35.51018,-2.78383 1.91425,0.781244 6.06796,2.027485 9.23046,2.769427 11.10656,3.71587 20.76486,8.729473 33.64651,16.49946 2.41809,1.081289 4.91723,2.430406 5.55366,2.998037 0.63643,0.567631 2.483,2.219002 4.10349,3.669713 4.93003,4.413512 7.04042,4.52002 8.97047,0.452728 3.14781,-6.6335 10.2386,-10.018597 20.62729,-9.847324 C 741.17467,70.72608 745.9263,68.8391 750,68 c 6.7797,-1.510568 13.81179,-2.330565 20.5,-4.483266 5.53467,-0.991167 10.90543,-3.769775 16.44098,-4.516734 3.74768,-0.963775 6.31279,-1.810261 9.78817,-2.338444 8.2107,-1.027291 17.82343,-3.291868 21.26836,-5.010427 4.32112,-1.28532 7.80617,-3.777547 11.60734,-6.163302 6.94645,-5.29832 12.90591,-4.328567 17.01678,2.769059 1.19881,2.069816 1.84561,3.384979 4.63277,9.42007 6.34658,13.742356 -21.17327,46.004174 -30.92441,36.253031 -0.76002,-0.760018 -3.20809,-0.702396 -8.45,0.198893 -4.059,0.697899 -12.10499,1.32139 -17.87999,1.385536 -9.7971,-0.171547 -19.10057,1.522031 -25.45697,9.402374 -0.77614,1.50088 -2.11583,3.3137 -2.97709,4.02849 -6.73127,5.58645 1.04133,16.05472 11.92049,16.05472 4.37345,0.57859 6.37428,-1.82826 10.0041,-3.52588 3.09619,-1.93596 5.82612,-3.27884 9.27304,-4.35498 C 801.60222,114.66458 807.8346,112 808.73709,112 c 7.60351,-4.74011 12.70247,-7.51789 17.81061,2.21718 0.38864,1.76944 1.06156,3.90694 1.49539,4.75 4.87619,9.47586 4.96735,13.16854 0.56834,23.02247 -1.32216,2.96169 -6.79522,6.80727 -7.77861,8.01035 -1.13266,1.38569 -4.10338,4.05528 -4.83282,4.96056 -2.07854,2.57962 -14.66491,5.51753 -22.21081,3.40025 -4.71537,-1.32306 -6.4363,-1.43777 -7.8958,-0.52631 -1.02644,0.64103 -2.49068,1.1655 -3.25387,1.1655 -11.17286,0 -25.19915,24.78224 -14.16212,25.02224 0.56243,0.0122 2.1476,0.90222 3.5226,1.97776 3.69375,2.8893 9.08864,2.51595 16.30516,-1.12838 3.40716,-1.72061 6.92694,-3.48983 7.82173,-3.93159 0.89479,-0.44177 3.29176,-0.82375 5.16347,-1.46668 2.40702,-0.82681 4.4567,-1.52069 5.5813,-2.56841 3.77154,-2.69345 8.11345,-3.85455 11.84985,-6.86011 5.31526,-4.95192 11.50329,-1.21603 15.23867,9.20002 4.92267,13.72676 3.41194,23.04864 -5.21018,32.14919 -1.5125,1.59642 -2.75,3.42666 -2.75,4.06718 0,4.94828 -9.22805,8.64048 -19.22088,7.69038 -4.00351,-0.38064 -9.07912,-0.31835 -11.27912,0.13843 -2.2,0.45678 -6.925,1.18735 -10.5,1.62349 -9.15072,1.11636 -18.96894,4.04136 -22.5256,6.71074 -11.82951,8.87839 -22.68953,10.76653 -29.12142,5.06309 -5.05108,-4.47902 -10.83029,-7.66456 -14.00411,-7.71915 C 715.60655,228.90382 714,226.55253 714,221.13976 c 0,-5.57664 -0.41043,-6.05691 -2.89679,-3.38976 -2.47588,2.65591 -14.31797,9.25 -16.61172,9.25 -0.61371,0 -2.96441,0.89313 -5.22378,1.98474 -5.47782,2.6466 -12.44294,4.97036 -17.02751,5.68087 -11.32767,2.03005 -22.63409,0.37887 -33.76963,-0.53979 -13.84419,-1.16098 -25.57799,-9.3093 -37.56727,-15.61295 -1.82444,-1.03941 -2.59049,-2.91413 -4.03439,-4.42038 -1.17211,-1.09198 -2.64591,-3.01802 -3.27512,-4.28009 -2.02064,-4.053 -6.59379,-1.68768 -6.59379,3.41044 0,7.26211 -20.73195,19.53221 -34.32503,20.31508 -7.43329,0.4281 -12.04196,1.63569 -18.03909,4.7267 -11.73603,6.04893 -31.50552,-7.02304 -31.7171,-21.00105 -0.67782,-44.77961 -0.1612,-4.59014 -1.25,-2.22934 -6.73548,14.6043 -21.25659,21.77103 -48.66878,24.01991 -24.15187,1.9814 -50.42256,-0.2098 -63.5,-5.29645 -1.65,-0.6418 -5.65874,-3.81007 -8.90832,-7.04061 -5.90832,-5.87372 -5.90832,-5.87372 -12,-5.45713 -10.74303,0.73467 -34.99619,3.78521 -37.9909,4.77847 C 329.0062,226.56729 324.19085,227 319.9,227 c -8.41384,0 -17.48715,1.53319 -19.9,3.36267 -9.03763,5.4685 -18.08565,10.80521 -29,10.89615 z m 414.41859,-53.74407 c 2.22463,-2.22464 3.71507,-4.84697 4.12065,-7.25 0.34947,-2.07061 0.85143,-4.55225 1.11547,-5.51475 0.50347,-1.83531 -0.13767,-2.061 -5.15471,-1.81456 -2.79062,0.13708 -5.47902,1.01547 -9.73643,3.18123 -16.79684,2.44891 -17.37763,-11.96177 -23.72438,-17.28334 -1.77731,-0.6166 -2.15104,-8.90276 -0.54659,-12.11895 0.89386,-2.73865 1.72207,-4.78177 3.5074,-6.89993 1.31497,-3.90496 5.30412,-5.73359 8.5,-7.81445 1.99054,-1.78885 4.51692,-2.36281 6.96403,-3.5579 4.43649,-2.31338 16.02632,0.4972 18.49028,4.48397 1.72711,2.79452 28.10065,5.0121 31.87395,2.68007 1.71709,-1.06122 0.17555,-3.60601 -2.18525,-3.60743 -1.17865,-7.2e-4 -6.78418,-1.12572 -12.45672,-2.5 C 700.51376,128.12442 693.94849,127 691.59681,127 686.87174,127 685,124.74528 685,119.05344 c 0,-1.60263 -1.53356,-5.13133 -3.5,-8.05344 -1.925,-2.86054 -3.5,-5.40121 -3.5,-5.64594 0,-8.463752 -21.84002,-11.410366 -29.45548,-3.97408 -10.03505,10.8936 -10.69583,24.6987 -11.77066,38.62002 -1.21178,23.41418 7.65263,44.93098 20.41813,49.56145 8.11715,2.94437 24.41746,1.76243 28.2266,-2.0467 z M 548,188.43862 c 4.08253,-1.1759 11.54082,-9.6311 13.07306,-14.8205 2.71889,-3.92211 2.79724,-8.6438 4.42694,-12.96388 0.825,-1.9745 1.5,-6.55904 1.5,-10.18786 0,-3.62883 0.83594,-7.28447 0.96606,-8.40297 0.57008,-4.90024 -1.41149,-20.583 -4.03295,-27.48005 -1.33936,-6.14456 -3.4149,-11.21404 -7.63522,-15.798656 -8.34639,-8.919886 -22.42637,-3.245647 -20.84155,8.399156 0.39793,2.92388 0.68797,7.07598 0.64455,9.22689 1.9623,8.53925 2.11833,17.11001 2.34214,26.08925 0.19863,8.25 0.67781,17.7 1.06484,21 0.38703,3.3 0.67015,7.0125 0.62916,8.25 -0.041,1.2375 -0.17297,5.13973 -0.29328,8.67161 -0.23271,6.83157 1.15422,9.9774 4.04743,9.18031 0.88485,-0.24377 2.73382,-0.76726 4.10882,-1.1633 z M 276.33337,123.27768 c 0.33767,-4.82772 0.91734,-10.08886 1.28816,-11.69141 0.599,-2.58865 0.46247,-2.82308 -1.22365,-2.10117 -1.60859,0.68872 -10.95807,1.71202 -25.27413,2.76627 -2.20664,0.1625 -3.6251,-0.27101 -4.09458,-1.25137 -0.39507,-0.825 -1.23826,-2.50639 -1.87374,-3.73643 C 244.51994,106.03353 244,104.55204 244,103.97136 c 0,-0.58067 -0.45834,-1.59928 -1.01854,-2.26357 -0.56019,-0.66428 -1.79769,-2.121045 -2.75,-3.237246 -4.76014,-5.579383 -12.59519,-6.548546 -19.58762,-2.422908 -6.6888,3.946487 -6.23448,7.978574 1.54546,13.716124 4.94655,3.64797 6.90709,4.47207 14.0607,5.91034 1.5125,0.30409 2.75,0.89723 2.75,1.31808 0,0.86881 2.8673,1.97511 11.5,4.43708 6.59027,1.87948 17.65492,6.92593 21.36754,9.74547 3.39214,2.57615 3.78145,1.88771 4.46583,-7.89705 z"
     id="path2891"
     sodipodi:nodetypes="cssccssssssssssccssccccccccccssssssccssssssssccssssssssssssssssssssssccssssssccsccccssssssccssscccccccssssccscccccssssssssssssccsssssssssssssccccsssssssssssscccsssccccccssssssssccsccccssccsccssssccssssssssssssssc"
     inkscape:export-xdpi="50.400547"
     inkscape:export-ydpi="50.400547"
     inkscape:export-filename="/home/tobi/Desktop/sludge-logo/path400.png" />
</svg>
