/* XPM */
static char *spritebankeditor__[] = {
/* columns rows colors chars-per-pixel */
"16 16 214 2",
"   c #010000",
".  c #030201",
"X  c #060504",
"o  c #070605",
"O  c #090807",
"+  c #0B0A09",
"@  c #0B0B09",
"#  c #0A0B0A",
"$  c #10110F",
"%  c #101210",
"&  c #131211",
"*  c #151514",
"=  c #141714",
"-  c #161714",
";  c #131814",
":  c #131B16",
">  c #161A17",
",  c #181816",
"<  c #141D18",
"1  c #161E19",
"2  c #1B1B19",
"3  c #1C1B1A",
"4  c #191C19",
"5  c #1A1C19",
"6  c #1C1E1B",
"7  c #19221C",
"8  c #1B221D",
"9  c #1E241F",
"0  c #21211F",
"q  c #22211F",
"w  c #20231F",
"e  c #1C2720",
"r  c #1D2721",
"t  c #242220",
"y  c #262322",
"u  c #262523",
"i  c #272623",
"p  c #292624",
"a  c #292625",
"s  c #2A2726",
"d  c #272A26",
"f  c #292925",
"g  c #282926",
"h  c #2A2826",
"j  c #2B2826",
"k  c #2A2827",
"l  c #2B2928",
"z  c #2B2A28",
"x  c #2F2929",
"c  c #2E2C29",
"v  c #2D2C2A",
"b  c #2E2C2A",
"n  c #2F2C2A",
"m  c #2E2D2A",
"M  c #2E2D2B",
"N  c #2F2D2B",
"B  c #2C2E2A",
"V  c #2E2E2B",
"C  c #2F2F2C",
"Z  c #312728",
"A  c #35292A",
"S  c #35292B",
"D  c #302C2A",
"F  c #302F2D",
"G  c #312F2D",
"H  c #3F2C2F",
"J  c #2E382F",
"K  c #30302C",
"L  c #31302C",
"P  c #31302D",
"I  c #32312E",
"U  c #32312F",
"Y  c #33342F",
"T  c #3A302F",
"R  c #3D2F31",
"E  c #393732",
"W  c #3A3734",
"Q  c #323932",
"!  c #353B34",
"~  c #373A34",
"^  c #333E34",
"/  c #343F34",
"(  c #353F35",
")  c #393834",
"_  c #3A3834",
"`  c #383A34",
"'  c #3B3936",
"]  c #3B3837",
"[  c #3D3835",
"{  c #3F3B38",
"}  c #461624",
"|  c #451C27",
" . c #491927",
".. c #4E1B2B",
"X. c #581E2F",
"o. c #66162E",
"O. c #6E162F",
"+. c #731A37",
"@. c #7C193C",
"#. c #41242B",
"$. c #452529",
"%. c #46292F",
"&. c #432B31",
"*. c #462830",
"=. c #442A30",
"-. c #432C31",
";. c #442F32",
":. c #552A35",
">. c #562F39",
",. c #5C2C39",
"<. c #403133",
"1. c #483035",
"2. c #4A3337",
"3. c #403B37",
"4. c #47383A",
"5. c #403E39",
"6. c #612C3B",
"7. c #74253E",
"8. c #61333F",
"9. c #354035",
"0. c #374137",
"q. c #3A4139",
"w. c #3B433A",
"e. c #4F3D43",
"r. c #6A2A40",
"t. c #792B43",
"y. c #6B3141",
"u. c #6F3344",
"i. c #6B3E46",
"p. c #6E3C48",
"a. c #773347",
"s. c #733748",
"d. c #7A3448",
"f. c #7D364D",
"g. c #723F54",
"h. c #7E3C53",
"j. c #564243",
"k. c #58474F",
"l. c #4E4251",
"z. c #5D525D",
"x. c #83173C",
"c. c #921D44",
"v. c #941D45",
"b. c #9B1A45",
"n. c #9A1B46",
"m. c #A21C49",
"M. c #AE1E4E",
"N. c #B3194F",
"B. c #B61950",
"V. c #BA1B51",
"C. c #BB1952",
"Z. c #B81D55",
"A. c #BB1D58",
"S. c #922742",
"D. c #92264C",
"F. c #813C55",
"G. c #823F57",
"H. c #A6214B",
"J. c #A6244B",
"K. c #AA2050",
"L. c #A22A5D",
"P. c #A02E5C",
"I. c #A32F60",
"U. c #A63373",
"Y. c #C21C54",
"T. c #C91D5A",
"R. c #CD1E5B",
"E. c #D61A57",
"W. c #DD175B",
"Q. c #D11E5E",
"!. c #DA1C5F",
"~. c #E51A59",
"^. c #F0185B",
"/. c #DE1562",
"(. c #EF176A",
"). c #F31E67",
"_. c #FF1F71",
"`. c #F81C7D",
"'. c #D22262",
"]. c #D42562",
"[. c #D52466",
"{. c #D32E67",
"}. c #DE2269",
"|. c #DE3277",
" X c #E3266B",
".X c #E7226D",
"XX c #E8226B",
"oX c #F22A7D",
"OX c #B65167",
"+X c #A84B7F",
"@X c #B36D6A",
"#X c #CB5C71",
"$X c #CC676E",
"%X c #5D3885",
"&X c #30499A",
"*X c #1A58AF",
"=X c #2551AE",
"-X c #2E65B2",
";X c #42408A",
":X c #414E95",
">X c #766B82",
",X c #736EAA",
"<X c #2175CE",
"1X c #296EDE",
"2X c #CC3583",
"3X c #FD2981",
"4X c #FF3D86",
"5X c #8F7786",
"6X c #967389",
"7X c #ED558B",
"8X c #93869A",
"9X c #C19BA1",
"0X c #C4A1A8",
"qX c None",
/* pixels */
"qXqXqXqXqXqXqXqXqXqXqXqXqXqXqXqX",
"qXL E Y J ! 0.w.q.9.! / ~ _ 5.X ",
"qXL w 4.a.f.F.p.i.G.G.s.j.b L @ ",
"qXb ; 1.Y. X4X#X$X`.3X!.a.e a @ ",
"qXF * R M.{.7X9X9X).oXR.u.7 k X ",
"qXF 3 E L.+X,X-X<X|.oXR.y.r b   ",
"qXU % D D.L.U.%X&X1X|.Z.8.: u qX",
"qXL u L :.o.O.t.g.>X5X7.<.k L qX",
"qXb % k <.-.-.&.&.$.#.&.3.* y qX",
"qXb w b / Q _ _ ] { 3.W E q b qX",
"qXF , k 7.K.[.H.S.'.[.m.1.> k qX",
"qXF 2 n v.T.(.OX@X/..XN.>.8 k qX",
"qXb > n v.Z.W.6X8XE.}.N.,.1 a qX",
"qXz $ A n.Z.^.;X=X~..XC.6.1 t . ",
"qXz 2 A +.@.J.:X*XL.n.x.:.9 k X ",
"qXn @ Z ..} e.z.l.k.| | %.5 3 O "
};
