/* XPM */
static char *translationeditor__[] = {
/* columns rows colors chars-per-pixel */
"16 16 139 2",
"   c black",
".  c #080303",
"X  c #000900",
"o  c #00000A",
"O  c #050508",
"+  c #0D0D0C",
"@  c #0E0E0E",
"#  c #00001F",
"$  c #200000",
"%  c #270000",
"&  c #2F031A",
"*  c #0A3D00",
"=  c #310535",
"-  c #540001",
";  c #5B0000",
":  c #6F0000",
">  c #0F4907",
",  c #094E08",
"<  c #0D7A00",
"1  c #0E0F45",
"2  c #00044F",
"3  c #030854",
"4  c #260242",
"5  c #0A0E79",
"6  c #774242",
"7  c #7C6B7C",
"8  c #960000",
"9  c #970000",
"0  c #9A0000",
"q  c #9F0607",
"w  c #9B0809",
"e  c #A80000",
"r  c #AD0000",
"t  c #AD0602",
"y  c #B80000",
"u  c #BA0500",
"i  c #C20000",
"p  c #C30202",
"a  c #C20303",
"s  c #C50000",
"d  c #C50302",
"f  c #C90101",
"g  c #CC0404",
"h  c #C70A01",
"j  c #D40000",
"k  c #D70000",
"l  c #D90000",
"z  c #DB0000",
"x  c #E10000",
"c  c #F00404",
"v  c #FE0000",
"b  c red",
"n  c #FF0101",
"m  c #BD6A69",
"M  c #A57A7B",
"N  c #B37777",
"B  c #CE5B5B",
"V  c #D35353",
"C  c #FB5D5D",
"Z  c #FA5E5E",
"A  c #FC5E5E",
"S  c #C76F6E",
"D  c #DC7878",
"F  c #E66060",
"G  c #F06262",
"H  c #F46060",
"J  c #F76060",
"K  c #FB6161",
"L  c #FC6161",
"P  c #E87979",
"I  c #F77474",
"U  c #F87B7B",
"Y  c #0E8A00",
"T  c #148800",
"R  c #109700",
"E  c #179E00",
"W  c #159B07",
"Q  c #2B9017",
"!  c #12A200",
"~  c #19AA00",
"^  c #1CAE00",
"/  c #1CBC00",
"(  c #33A81D",
")  c #38B720",
"_  c #20CF00",
"`  c #0FE000",
"'  c #26E900",
"]  c #3ECD23",
"[  c #3EF121",
"{  c #42E224",
"}  c #49FA27",
"|  c #6A8463",
" . c #A3807F",
".. c #070E8D",
"X. c #030797",
"o. c #040990",
"O. c #030B9A",
"+. c #060BA2",
"@. c #0005A8",
"#. c #0206AA",
"$. c #000DAE",
"%. c #0006B3",
"&. c #AA8484",
"*. c #B08A8A",
"=. c #99A09F",
"-. c #A5A3A3",
";. c #A7A7A6",
":. c #B1AEAD",
">. c #B4AFB0",
",. c #B2B0B2",
"<. c #B0B2B2",
"1. c #B9B9D7",
"2. c #D7D9D5",
"3. c #DFDBDB",
"4. c #C8C9EA",
"5. c #C9CAED",
"6. c #CFD6FB",
"7. c #E3EEED",
"8. c #E8EBE8",
"9. c #EBEAE8",
"0. c #EBEDE9",
"q. c #F1ECED",
"w. c #F2EEEF",
"e. c #FAF9F3",
"r. c #F4FFFE",
"t. c #F7FFFF",
"y. c #F8F8F8",
"u. c #FEF9FB",
"i. c #FAFEF9",
"p. c #FAFEFA",
"a. c #FBFFFB",
"s. c #FFFAFC",
"d. c #FFFBFC",
"f. c #FBFEFE",
"g. c #FDFDFC",
"h. c #FEFEFE",
"j. c #FFFEFE",
"k. c gray100",
"l. c None",
/* pixels */
"l.l.l.l.l.l.l.l.l.l.l.l.l.l.l.l.",
"l.l.l.l.8 s j l j f s a a g : l.",
"l.l.l.M s c v v v v v v v v y l.",
"l.l.l. .V F H C A C K L K G B . ",
"l.l.l.,.k.k.k.k.k.k.k.f.f.k.y.@ ",
"l.l.l.| :.:.<.*.N &.8.k.f.k.e.@ ",
"l.W ` [ 8.q.t.I x e 7 6.5.4.1.O ",
"l.^ ' } k.u.k.U l h 4 %.@.@.X.  ",
"l.! _ { i.u.k.P i u = $.+.O...l.",
"l.R / ] i.u.k.D r t & 2 o.3 # l.",
"l.Y ~ ) 0.w.t.S 0 q % l.5 o l.l.",
"l.T E ( 2.3.7.m 0 w $ l.1 l.l.l.",
"l., < Q ;.-.=.6 ; - l.l.  l.l.l.",
"l.l.> * l.l.l.l.l.l.l.l.l.l.l.l.",
"l.l.l.X l.l.l.l.l.l.l.l.l.l.l.l.",
"l.l.l.l.l.l.l.l.l.l.l.l.l.l.l.l."
};
